<svg width="1000" height="520" xmlns="http://www.w3.org/2000/svg" role="img" aria-labelledby="chart-title chart-subtitle"><defs><style><![CDATA[
		.project-name { 
			font-family: -apple-system, BlinkMacSystemFont, system-ui, sans-serif; 
			font-size: 16.0px; 
			font-weight: 500; 
			fill: #4269d0; 
			letter-spacing: -0.005em;
			line-height: 1.2;
		}
		.chart-title { 
			font-family: -apple-system, BlinkMacSystemFont, system-ui, sans-serif; 
			font-size: 18.0px; 
			font-weight: 600; 
			fill: #111827; 
			letter-spacing: -0.02em;
			line-height: 1.1;
		}
		.chart-subtitle { 
			font-family: -apple-system, BlinkMacSystemFont, system-ui, sans-serif; 
			font-size: 14.0px; 
			font-weight: 400; 
			fill: #6b7280;
			letter-spacing: -0.005em;
			line-height: 1.3;
		}
		.axis-label { 
			font-family: -apple-system, BlinkMacSystemFont, system-ui, sans-serif; 
			font-size: 11.0px; 
			font-weight: 400; 
			fill: #9ca3af;
			letter-spacing: 0em;
		}
		.axis-title { 
			font-family: -apple-system, BlinkMacSystemFont, system-ui, sans-serif; 
			font-size: 12.0px; 
			font-weight: 500; 
			fill: #4b5563;
			letter-spacing: -0.005em;
		}
		.legend-title { 
			font-family: -apple-system, BlinkMacSystemFont, system-ui, sans-serif; 
			font-size: 12.0px; 
			font-weight: 600; 
			fill: #374151;
			letter-spacing: -0.01em;
		}
		.legend-text { 
			font-family: -apple-system, BlinkMacSystemFont, system-ui, sans-serif; 
			font-size: 11.0px; 
			font-weight: 400; 
			fill: #4b5563;
			letter-spacing: 0em;
		}
		.legend-count { 
			font-family: ui-monospace, 'SF Mono', 'Monaco', 'Cascadia Code', monospace; 
			font-size: 10.0px; 
			font-weight: 500; 
			fill: #6b7280;
			letter-spacing: 0.05em;
		}
		.meta-text { 
			font-family: -apple-system, BlinkMacSystemFont, system-ui, sans-serif; 
			font-size: 10.0px; 
			font-weight: 400;
			fill: #9ca3af;
			letter-spacing: 0em;
		}
		.grid-line { 
			stroke: #f1f5f9; 
			stroke-width: 0.5; 
			opacity: 1;
		}
		.grid-line-major { 
			stroke: #e2e8f0; 
			stroke-width: 0.75; 
			opacity: 1;
		}
		.chart-area { 
			fill: #ffffff;
		}
		.chart-border { 
			stroke: none;
			fill: none;
		}
		.trend-line { 
			fill: none; 
			stroke-width: 2; 
			stroke-linecap: round; 
			stroke-linejoin: round; 
			opacity: 0.9;
			transition: all 0.2s cubic-bezier(0.4, 0, 0.2, 1);
			cursor: pointer;
		}
		.trend-line:hover { 
			stroke-width: 3;
			opacity: 1;
			filter: drop-shadow(0 0 4px rgba(0,0,0,0.1));
		}
		.trend-line:focus { 
			outline: 2px solid #4269d0;
			outline-offset: 2px;
			stroke-width: 3;
		}
		.data-point { 
			fill: #ffffff;
			stroke-width: 2;
			transition: all 0.15s cubic-bezier(0.4, 0, 0.2, 1);
			cursor: pointer;
		}
		.data-point:hover { 
			r: 6;
			stroke: #ffffff;
			stroke-width: 3;
			filter: drop-shadow(0 2px 4px rgba(0,0,0,0.15));
		}
		.data-point:focus { 
			outline: 2px solid #4269d0;
			outline-offset: 2px;
			r: 6;
		}
		.data-point:active {
			transform: scale(0.95);
		}
		.legend-background { 
			fill: #fafafa; 
			stroke: #e4e4e7; 
			stroke-width: 0.5; 
			rx: 6;
			transition: all 0.2s cubic-bezier(0.4, 0, 0.2, 1);
		}
		.legend-background:hover {
			stroke: #d1d5db;
			fill: #ffffff;
		}
		.legend-item { 
			cursor: pointer;
			transition: all 0.15s cubic-bezier(0.4, 0, 0.2, 1);
		}
		.legend-item:hover {
			opacity: 1;
			transform: translateX(2px);
		}
		.legend-item:focus {
			outline: 2px solid #4269d0;
			outline-offset: 1px;
			border-radius: 4px;
		}
		.legend-color-indicator { 
			rx: 1;
			transition: all 0.15s cubic-bezier(0.4, 0, 0.2, 1);
		}
		.legend-item:hover .legend-color-indicator {
			rx: 2;
			transform: scale(1.1);
			filter: drop-shadow(0 1px 3px rgba(0,0,0,0.1));
		}
		.legend-text {
			transition: all 0.15s cubic-bezier(0.4, 0, 0.2, 1);
		}
		.legend-item:hover .legend-text {
			fill: #111827;
			font-weight: 500;
		}
		@media (prefers-reduced-motion: reduce) {
			* {
				transition: none !important;
				animation: none !important;
			}
		}
	]]></style></defs><rect width="1000" height="520" fill="#ffffff"/><text id="chart-title" x="500" y="28" class="project-name" text-anchor="middle">typespec-asyncapi</text><text x="500" y="48" class="chart-title" text-anchor="middle">Language Trends</text><text id="chart-subtitle" x="500" y="65" class="chart-subtitle" text-anchor="middle">Lines of code over time</text><rect x="80" y="90" width="680" height="330" class="chart-area"/><line x1="80" y1="90" x2="760" y2="90" class="grid-line-major"/><line x1="80" y1="156" x2="760" y2="156" class="grid-line"/><line x1="80" y1="222" x2="760" y2="222" class="grid-line"/><line x1="80" y1="288" x2="760" y2="288" class="grid-line"/><line x1="80" y1="354" x2="760" y2="354" class="grid-line"/><line x1="80" y1="420" x2="760" y2="420" class="grid-line-major"/><circle cx="80.0" cy="418.0" r="3" fill="#4269d0" class="data-point" tabindex="0" role="img" aria-label="Markdown: 327 lines (Aug 29, 2025)"><title>Markdown: 327 lines (Aug 29, 2025)</title></circle><circle cx="131.0" cy="386.0" r="3" fill="#4269d0" class="data-point" tabindex="0" role="img" aria-label="Markdown: 5.4K lines (Aug 30, 2025)"><title>Markdown: 5.4K lines (Aug 30, 2025)</title></circle><circle cx="144.0" cy="386.0" r="3" fill="#4269d0" class="data-point" tabindex="0" role="img" aria-label="Markdown: 5.5K lines (Aug 30, 2025)"><title>Markdown: 5.5K lines (Aug 30, 2025)</title></circle><circle cx="156.0" cy="381.0" r="3" fill="#4269d0" class="data-point" tabindex="0" role="img" aria-label="Markdown: 6.4K lines (Aug 30, 2025)"><title>Markdown: 6.4K lines (Aug 30, 2025)</title></circle><circle cx="169.0" cy="379.0" r="3" fill="#4269d0" class="data-point" tabindex="0" role="img" aria-label="Markdown: 6.6K lines (Aug 31, 2025)"><title>Markdown: 6.6K lines (Aug 31, 2025)</title></circle><circle cx="182.0" cy="378.0" r="3" fill="#4269d0" class="data-point" tabindex="0" role="img" aria-label="Markdown: 6.8K lines (Aug 31, 2025)"><title>Markdown: 6.8K lines (Aug 31, 2025)</title></circle><circle cx="195.0" cy="378.0" r="3" fill="#4269d0" class="data-point" tabindex="0" role="img" aria-label="Markdown: 6.8K lines (Aug 31, 2025)"><title>Markdown: 6.8K lines (Aug 31, 2025)</title></circle><circle cx="208.0" cy="376.0" r="3" fill="#4269d0" class="data-point" tabindex="0" role="img" aria-label="Markdown: 7.1K lines (Aug 31, 2025)"><title>Markdown: 7.1K lines (Aug 31, 2025)</title></circle><circle cx="221.0" cy="376.0" r="3" fill="#4269d0" class="data-point" tabindex="0" role="img" aria-label="Markdown: 7.1K lines (Aug 31, 2025)"><title>Markdown: 7.1K lines (Aug 31, 2025)</title></circle><circle cx="233.0" cy="371.0" r="3" fill="#4269d0" class="data-point" tabindex="0" role="img" aria-label="Markdown: 7.9K lines (Aug 31, 2025)"><title>Markdown: 7.9K lines (Aug 31, 2025)</title></circle><circle cx="246.0" cy="365.0" r="3" fill="#4269d0" class="data-point" tabindex="0" role="img" aria-label="Markdown: 8.9K lines (Aug 31, 2025)"><title>Markdown: 8.9K lines (Aug 31, 2025)</title></circle><circle cx="259.0" cy="363.0" r="3" fill="#4269d0" class="data-point" tabindex="0" role="img" aria-label="Markdown: 9.1K lines (Aug 31, 2025)"><title>Markdown: 9.1K lines (Aug 31, 2025)</title></circle><circle cx="272.0" cy="362.0" r="3" fill="#4269d0" class="data-point" tabindex="0" role="img" aria-label="Markdown: 9.3K lines (Sep 1, 2025)"><title>Markdown: 9.3K lines (Sep 1, 2025)</title></circle><circle cx="285.0" cy="351.0" r="3" fill="#4269d0" class="data-point" tabindex="0" role="img" aria-label="Markdown: 11.1K lines (Sep 1, 2025)"><title>Markdown: 11.1K lines (Sep 1, 2025)</title></circle><circle cx="298.0" cy="345.0" r="3" fill="#4269d0" class="data-point" tabindex="0" role="img" aria-label="Markdown: 12.0K lines (Sep 1, 2025)"><title>Markdown: 12.0K lines (Sep 1, 2025)</title></circle><circle cx="310.0" cy="338.0" r="3" fill="#4269d0" class="data-point" tabindex="0" role="img" aria-label="Markdown: 13.2K lines (Sep 1, 2025)"><title>Markdown: 13.2K lines (Sep 1, 2025)</title></circle><circle cx="323.0" cy="316.0" r="3" fill="#4269d0" class="data-point" tabindex="0" role="img" aria-label="Markdown: 16.6K lines (Sep 1, 2025)"><title>Markdown: 16.6K lines (Sep 1, 2025)</title></circle><circle cx="336.0" cy="315.0" r="3" fill="#4269d0" class="data-point" tabindex="0" role="img" aria-label="Markdown: 16.7K lines (Sep 2, 2025)"><title>Markdown: 16.7K lines (Sep 2, 2025)</title></circle><circle cx="349.0" cy="313.0" r="3" fill="#4269d0" class="data-point" tabindex="0" role="img" aria-label="Markdown: 17.0K lines (Sep 2, 2025)"><title>Markdown: 17.0K lines (Sep 2, 2025)</title></circle><circle cx="362.0" cy="264.0" r="3" fill="#4269d0" class="data-point" tabindex="0" role="img" aria-label="Markdown: 24.9K lines (Sep 2, 2025)"><title>Markdown: 24.9K lines (Sep 2, 2025)</title></circle><circle cx="375.0" cy="262.0" r="3" fill="#4269d0" class="data-point" tabindex="0" role="img" aria-label="Markdown: 25.3K lines (Sep 2, 2025)"><title>Markdown: 25.3K lines (Sep 2, 2025)</title></circle><circle cx="387.0" cy="262.0" r="3" fill="#4269d0" class="data-point" tabindex="0" role="img" aria-label="Markdown: 25.3K lines (Sep 2, 2025)"><title>Markdown: 25.3K lines (Sep 2, 2025)</title></circle><circle cx="400.0" cy="245.0" r="3" fill="#4269d0" class="data-point" tabindex="0" role="img" aria-label="Markdown: 27.9K lines (Sep 2, 2025)"><title>Markdown: 27.9K lines (Sep 2, 2025)</title></circle><circle cx="413.0" cy="241.0" r="3" fill="#4269d0" class="data-point" tabindex="0" role="img" aria-label="Markdown: 28.5K lines (Sep 3, 2025)"><title>Markdown: 28.5K lines (Sep 3, 2025)</title></circle><circle cx="426.0" cy="226.0" r="3" fill="#4269d0" class="data-point" tabindex="0" role="img" aria-label="Markdown: 30.9K lines (Sep 3, 2025)"><title>Markdown: 30.9K lines (Sep 3, 2025)</title></circle><circle cx="439.0" cy="226.0" r="3" fill="#4269d0" class="data-point" tabindex="0" role="img" aria-label="Markdown: 31.0K lines (Sep 3, 2025)"><title>Markdown: 31.0K lines (Sep 3, 2025)</title></circle><circle cx="452.0" cy="225.0" r="3" fill="#4269d0" class="data-point" tabindex="0" role="img" aria-label="Markdown: 31.1K lines (Sep 3, 2025)"><title>Markdown: 31.1K lines (Sep 3, 2025)</title></circle><circle cx="464.0" cy="222.0" r="3" fill="#4269d0" class="data-point" tabindex="0" role="img" aria-label="Markdown: 31.6K lines (Sep 3, 2025)"><title>Markdown: 31.6K lines (Sep 3, 2025)</title></circle><circle cx="477.0" cy="218.0" r="3" fill="#4269d0" class="data-point" tabindex="0" role="img" aria-label="Markdown: 32.2K lines (Sep 3, 2025)"><title>Markdown: 32.2K lines (Sep 3, 2025)</title></circle><circle cx="490.0" cy="215.0" r="3" fill="#4269d0" class="data-point" tabindex="0" role="img" aria-label="Markdown: 32.7K lines (Sep 3, 2025)"><title>Markdown: 32.7K lines (Sep 3, 2025)</title></circle><circle cx="503.0" cy="206.0" r="3" fill="#4269d0" class="data-point" tabindex="0" role="img" aria-label="Markdown: 34.1K lines (Sep 3, 2025)"><title>Markdown: 34.1K lines (Sep 3, 2025)</title></circle><circle cx="516.0" cy="196.0" r="3" fill="#4269d0" class="data-point" tabindex="0" role="img" aria-label="Markdown: 35.7K lines (Sep 3, 2025)"><title>Markdown: 35.7K lines (Sep 3, 2025)</title></circle><circle cx="529.0" cy="193.0" r="3" fill="#4269d0" class="data-point" tabindex="0" role="img" aria-label="Markdown: 36.2K lines (Sep 4, 2025)"><title>Markdown: 36.2K lines (Sep 4, 2025)</title></circle><circle cx="541.0" cy="189.0" r="3" fill="#4269d0" class="data-point" tabindex="0" role="img" aria-label="Markdown: 36.9K lines (Sep 5, 2025)"><title>Markdown: 36.9K lines (Sep 5, 2025)</title></circle><circle cx="554.0" cy="182.0" r="3" fill="#4269d0" class="data-point" tabindex="0" role="img" aria-label="Markdown: 37.9K lines (Sep 5, 2025)"><title>Markdown: 37.9K lines (Sep 5, 2025)</title></circle><circle cx="567.0" cy="167.0" r="3" fill="#4269d0" class="data-point" tabindex="0" role="img" aria-label="Markdown: 40.3K lines (Sep 6, 2025)"><title>Markdown: 40.3K lines (Sep 6, 2025)</title></circle><circle cx="580.0" cy="167.0" r="3" fill="#4269d0" class="data-point" tabindex="0" role="img" aria-label="Markdown: 40.4K lines (Sep 20, 2025)"><title>Markdown: 40.4K lines (Sep 20, 2025)</title></circle><circle cx="593.0" cy="167.0" r="3" fill="#4269d0" class="data-point" tabindex="0" role="img" aria-label="Markdown: 40.4K lines (Oct 2, 2025)"><title>Markdown: 40.4K lines (Oct 2, 2025)</title></circle><circle cx="606.0" cy="162.0" r="3" fill="#4269d0" class="data-point" tabindex="0" role="img" aria-label="Markdown: 41.2K lines (Oct 4, 2025)"><title>Markdown: 41.2K lines (Oct 4, 2025)</title></circle><circle cx="618.0" cy="154.0" r="3" fill="#4269d0" class="data-point" tabindex="0" role="img" aria-label="Markdown: 42.5K lines (Oct 5, 2025)"><title>Markdown: 42.5K lines (Oct 5, 2025)</title></circle><circle cx="631.0" cy="147.0" r="3" fill="#4269d0" class="data-point" tabindex="0" role="img" aria-label="Markdown: 43.4K lines (Oct 5, 2025)"><title>Markdown: 43.4K lines (Oct 5, 2025)</title></circle><circle cx="644.0" cy="143.0" r="3" fill="#4269d0" class="data-point" tabindex="0" role="img" aria-label="Markdown: 44.1K lines (Oct 5, 2025)"><title>Markdown: 44.1K lines (Oct 5, 2025)</title></circle><circle cx="657.0" cy="141.0" r="3" fill="#4269d0" class="data-point" tabindex="0" role="img" aria-label="Markdown: 44.4K lines (Oct 5, 2025)"><title>Markdown: 44.4K lines (Oct 5, 2025)</title></circle><circle cx="670.0" cy="138.0" r="3" fill="#4269d0" class="data-point" tabindex="0" role="img" aria-label="Markdown: 44.9K lines (Oct 5, 2025)"><title>Markdown: 44.9K lines (Oct 5, 2025)</title></circle><circle cx="683.0" cy="135.0" r="3" fill="#4269d0" class="data-point" tabindex="0" role="img" aria-label="Markdown: 45.4K lines (Oct 5, 2025)"><title>Markdown: 45.4K lines (Oct 5, 2025)</title></circle><circle cx="695.0" cy="125.0" r="3" fill="#4269d0" class="data-point" tabindex="0" role="img" aria-label="Markdown: 47.0K lines (Oct 5, 2025)"><title>Markdown: 47.0K lines (Oct 5, 2025)</title></circle><circle cx="708.0" cy="114.0" r="3" fill="#4269d0" class="data-point" tabindex="0" role="img" aria-label="Markdown: 48.7K lines (Oct 6, 2025)"><title>Markdown: 48.7K lines (Oct 6, 2025)</title></circle><circle cx="721.0" cy="109.0" r="3" fill="#4269d0" class="data-point" tabindex="0" role="img" aria-label="Markdown: 49.6K lines (Oct 6, 2025)"><title>Markdown: 49.6K lines (Oct 6, 2025)</title></circle><circle cx="734.0" cy="107.0" r="3" fill="#4269d0" class="data-point" tabindex="0" role="img" aria-label="Markdown: 49.9K lines (Oct 6, 2025)"><title>Markdown: 49.9K lines (Oct 6, 2025)</title></circle><circle cx="747.0" cy="104.0" r="3" fill="#4269d0" class="data-point" tabindex="0" role="img" aria-label="Markdown: 50.3K lines (Oct 7, 2025)"><title>Markdown: 50.3K lines (Oct 7, 2025)</title></circle><circle cx="760.0" cy="102.0" r="3" fill="#4269d0" class="data-point" tabindex="0" role="img" aria-label="Markdown: 50.7K lines (Oct 7, 2025)"><title>Markdown: 50.7K lines (Oct 7, 2025)</title></circle><path d="M 80.00 418.00 L 92.00 407.00 L 105.00 400.00 L 118.00 394.00 L 131.00 386.00 L 144.00 386.00 L 156.00 381.00 L 169.00 379.00 L 182.00 378.00 L 195.00 378.00 L 208.00 376.00 L 221.00 376.00 L 233.00 371.00 L 246.00 365.00 L 259.00 363.00 L 272.00 362.00 L 285.00 351.00 L 298.00 345.00 L 310.00 338.00 L 323.00 316.00 L 336.00 315.00 L 349.00 313.00 L 362.00 264.00 L 375.00 262.00 L 387.00 262.00 L 400.00 245.00 L 413.00 241.00 L 426.00 226.00 L 439.00 226.00 L 452.00 225.00 L 464.00 222.00 L 477.00 218.00 L 490.00 215.00 L 503.00 206.00 L 516.00 196.00 L 529.00 193.00 L 541.00 189.00 L 554.00 182.00 L 567.00 167.00 L 580.00 167.00 L 593.00 167.00 L 606.00 162.00 L 618.00 154.00 L 631.00 147.00 L 644.00 143.00 L 657.00 141.00 L 670.00 138.00 L 683.00 135.00 L 695.00 125.00 L 708.00 114.00 L 721.00 109.00 L 734.00 107.00 L 747.00 104.00 L 760.00 102.00" stroke="#4269d0" class="trend-line" tabindex="0" role="img" aria-label="Markdown trend line"><title>Markdown: 1.4M lines (optimized from 54 to 54 points)</title></path><circle cx="80.0" cy="417.0" r="3" fill="#4269d0" class="data-point" tabindex="0" role="img" aria-label="TypeScript: 628 lines (Aug 29, 2025)"><title>TypeScript: 628 lines (Aug 29, 2025)</title></circle><circle cx="105.0" cy="344.0" r="3" fill="#4269d0" class="data-point" tabindex="0" role="img" aria-label="TypeScript: 12.2K lines (Aug 30, 2025)"><title>TypeScript: 12.2K lines (Aug 30, 2025)</title></circle><circle cx="118.0" cy="286.0" r="3" fill="#4269d0" class="data-point" tabindex="0" role="img" aria-label="TypeScript: 21.5K lines (Aug 30, 2025)"><title>TypeScript: 21.5K lines (Aug 30, 2025)</title></circle><circle cx="131.0" cy="343.0" r="3" fill="#4269d0" class="data-point" tabindex="0" role="img" aria-label="TypeScript: 12.3K lines (Aug 30, 2025)"><title>TypeScript: 12.3K lines (Aug 30, 2025)</title></circle><circle cx="144.0" cy="343.0" r="3" fill="#4269d0" class="data-point" tabindex="0" role="img" aria-label="TypeScript: 12.3K lines (Aug 30, 2025)"><title>TypeScript: 12.3K lines (Aug 30, 2025)</title></circle><circle cx="156.0" cy="340.0" r="3" fill="#4269d0" class="data-point" tabindex="0" role="img" aria-label="TypeScript: 12.7K lines (Aug 30, 2025)"><title>TypeScript: 12.7K lines (Aug 30, 2025)</title></circle><circle cx="169.0" cy="338.0" r="3" fill="#4269d0" class="data-point" tabindex="0" role="img" aria-label="TypeScript: 13.1K lines (Aug 31, 2025)"><title>TypeScript: 13.1K lines (Aug 31, 2025)</title></circle><circle cx="182.0" cy="334.0" r="3" fill="#4269d0" class="data-point" tabindex="0" role="img" aria-label="TypeScript: 13.7K lines (Aug 31, 2025)"><title>TypeScript: 13.7K lines (Aug 31, 2025)</title></circle><circle cx="195.0" cy="337.0" r="3" fill="#4269d0" class="data-point" tabindex="0" role="img" aria-label="TypeScript: 13.4K lines (Aug 31, 2025)"><title>TypeScript: 13.4K lines (Aug 31, 2025)</title></circle><circle cx="208.0" cy="337.0" r="3" fill="#4269d0" class="data-point" tabindex="0" role="img" aria-label="TypeScript: 13.3K lines (Aug 31, 2025)"><title>TypeScript: 13.3K lines (Aug 31, 2025)</title></circle><circle cx="221.0" cy="337.0" r="3" fill="#4269d0" class="data-point" tabindex="0" role="img" aria-label="TypeScript: 13.2K lines (Aug 31, 2025)"><title>TypeScript: 13.2K lines (Aug 31, 2025)</title></circle><circle cx="233.0" cy="336.0" r="3" fill="#4269d0" class="data-point" tabindex="0" role="img" aria-label="TypeScript: 13.5K lines (Aug 31, 2025)"><title>TypeScript: 13.5K lines (Aug 31, 2025)</title></circle><circle cx="246.0" cy="337.0" r="3" fill="#4269d0" class="data-point" tabindex="0" role="img" aria-label="TypeScript: 13.3K lines (Aug 31, 2025)"><title>TypeScript: 13.3K lines (Aug 31, 2025)</title></circle><circle cx="259.0" cy="335.0" r="3" fill="#4269d0" class="data-point" tabindex="0" role="img" aria-label="TypeScript: 13.6K lines (Aug 31, 2025)"><title>TypeScript: 13.6K lines (Aug 31, 2025)</title></circle><circle cx="272.0" cy="332.0" r="3" fill="#4269d0" class="data-point" tabindex="0" role="img" aria-label="TypeScript: 14.2K lines (Sep 1, 2025)"><title>TypeScript: 14.2K lines (Sep 1, 2025)</title></circle><circle cx="285.0" cy="342.0" r="3" fill="#4269d0" class="data-point" tabindex="0" role="img" aria-label="TypeScript: 12.6K lines (Sep 1, 2025)"><title>TypeScript: 12.6K lines (Sep 1, 2025)</title></circle><circle cx="298.0" cy="337.0" r="3" fill="#4269d0" class="data-point" tabindex="0" role="img" aria-label="TypeScript: 13.2K lines (Sep 1, 2025)"><title>TypeScript: 13.2K lines (Sep 1, 2025)</title></circle><circle cx="310.0" cy="335.0" r="3" fill="#4269d0" class="data-point" tabindex="0" role="img" aria-label="TypeScript: 13.7K lines (Sep 1, 2025)"><title>TypeScript: 13.7K lines (Sep 1, 2025)</title></circle><circle cx="323.0" cy="311.0" r="3" fill="#4269d0" class="data-point" tabindex="0" role="img" aria-label="TypeScript: 17.4K lines (Sep 1, 2025)"><title>TypeScript: 17.4K lines (Sep 1, 2025)</title></circle><circle cx="336.0" cy="332.0" r="3" fill="#4269d0" class="data-point" tabindex="0" role="img" aria-label="TypeScript: 14.0K lines (Sep 2, 2025)"><title>TypeScript: 14.0K lines (Sep 2, 2025)</title></circle><circle cx="349.0" cy="324.0" r="3" fill="#4269d0" class="data-point" tabindex="0" role="img" aria-label="TypeScript: 15.3K lines (Sep 2, 2025)"><title>TypeScript: 15.3K lines (Sep 2, 2025)</title></circle><circle cx="362.0" cy="283.0" r="3" fill="#4269d0" class="data-point" tabindex="0" role="img" aria-label="TypeScript: 21.9K lines (Sep 2, 2025)"><title>TypeScript: 21.9K lines (Sep 2, 2025)</title></circle><circle cx="375.0" cy="281.0" r="3" fill="#4269d0" class="data-point" tabindex="0" role="img" aria-label="TypeScript: 22.1K lines (Sep 2, 2025)"><title>TypeScript: 22.1K lines (Sep 2, 2025)</title></circle><circle cx="387.0" cy="279.0" r="3" fill="#4269d0" class="data-point" tabindex="0" role="img" aria-label="TypeScript: 22.5K lines (Sep 2, 2025)"><title>TypeScript: 22.5K lines (Sep 2, 2025)</title></circle><circle cx="400.0" cy="252.0" r="3" fill="#4269d0" class="data-point" tabindex="0" role="img" aria-label="TypeScript: 26.8K lines (Sep 2, 2025)"><title>TypeScript: 26.8K lines (Sep 2, 2025)</title></circle><circle cx="413.0" cy="243.0" r="3" fill="#4269d0" class="data-point" tabindex="0" role="img" aria-label="TypeScript: 28.2K lines (Sep 3, 2025)"><title>TypeScript: 28.2K lines (Sep 3, 2025)</title></circle><circle cx="426.0" cy="239.0" r="3" fill="#4269d0" class="data-point" tabindex="0" role="img" aria-label="TypeScript: 28.8K lines (Sep 3, 2025)"><title>TypeScript: 28.8K lines (Sep 3, 2025)</title></circle><circle cx="439.0" cy="241.0" r="3" fill="#4269d0" class="data-point" tabindex="0" role="img" aria-label="TypeScript: 28.6K lines (Sep 3, 2025)"><title>TypeScript: 28.6K lines (Sep 3, 2025)</title></circle><circle cx="452.0" cy="242.0" r="3" fill="#4269d0" class="data-point" tabindex="0" role="img" aria-label="TypeScript: 28.4K lines (Sep 3, 2025)"><title>TypeScript: 28.4K lines (Sep 3, 2025)</title></circle><circle cx="464.0" cy="240.0" r="3" fill="#4269d0" class="data-point" tabindex="0" role="img" aria-label="TypeScript: 28.8K lines (Sep 3, 2025)"><title>TypeScript: 28.8K lines (Sep 3, 2025)</title></circle><circle cx="477.0" cy="239.0" r="3" fill="#4269d0" class="data-point" tabindex="0" role="img" aria-label="TypeScript: 28.9K lines (Sep 3, 2025)"><title>TypeScript: 28.9K lines (Sep 3, 2025)</title></circle><circle cx="490.0" cy="239.0" r="3" fill="#4269d0" class="data-point" tabindex="0" role="img" aria-label="TypeScript: 28.9K lines (Sep 3, 2025)"><title>TypeScript: 28.9K lines (Sep 3, 2025)</title></circle><circle cx="503.0" cy="242.0" r="3" fill="#4269d0" class="data-point" tabindex="0" role="img" aria-label="TypeScript: 28.4K lines (Sep 3, 2025)"><title>TypeScript: 28.4K lines (Sep 3, 2025)</title></circle><circle cx="516.0" cy="237.0" r="3" fill="#4269d0" class="data-point" tabindex="0" role="img" aria-label="TypeScript: 29.1K lines (Sep 3, 2025)"><title>TypeScript: 29.1K lines (Sep 3, 2025)</title></circle><circle cx="529.0" cy="230.0" r="3" fill="#4269d0" class="data-point" tabindex="0" role="img" aria-label="TypeScript: 30.3K lines (Sep 4, 2025)"><title>TypeScript: 30.3K lines (Sep 4, 2025)</title></circle><circle cx="541.0" cy="225.0" r="3" fill="#4269d0" class="data-point" tabindex="0" role="img" aria-label="TypeScript: 31.2K lines (Sep 5, 2025)"><title>TypeScript: 31.2K lines (Sep 5, 2025)</title></circle><circle cx="554.0" cy="225.0" r="3" fill="#4269d0" class="data-point" tabindex="0" role="img" aria-label="TypeScript: 31.2K lines (Sep 5, 2025)"><title>TypeScript: 31.2K lines (Sep 5, 2025)</title></circle><circle cx="567.0" cy="220.0" r="3" fill="#4269d0" class="data-point" tabindex="0" role="img" aria-label="TypeScript: 31.9K lines (Sep 6, 2025)"><title>TypeScript: 31.9K lines (Sep 6, 2025)</title></circle><circle cx="580.0" cy="221.0" r="3" fill="#4269d0" class="data-point" tabindex="0" role="img" aria-label="TypeScript: 31.7K lines (Sep 20, 2025)"><title>TypeScript: 31.7K lines (Sep 20, 2025)</title></circle><circle cx="593.0" cy="221.0" r="3" fill="#4269d0" class="data-point" tabindex="0" role="img" aria-label="TypeScript: 31.8K lines (Oct 2, 2025)"><title>TypeScript: 31.8K lines (Oct 2, 2025)</title></circle><circle cx="606.0" cy="231.0" r="3" fill="#4269d0" class="data-point" tabindex="0" role="img" aria-label="TypeScript: 30.1K lines (Oct 4, 2025)"><title>TypeScript: 30.1K lines (Oct 4, 2025)</title></circle><circle cx="618.0" cy="231.0" r="3" fill="#4269d0" class="data-point" tabindex="0" role="img" aria-label="TypeScript: 30.1K lines (Oct 5, 2025)"><title>TypeScript: 30.1K lines (Oct 5, 2025)</title></circle><circle cx="631.0" cy="233.0" r="3" fill="#4269d0" class="data-point" tabindex="0" role="img" aria-label="TypeScript: 29.8K lines (Oct 5, 2025)"><title>TypeScript: 29.8K lines (Oct 5, 2025)</title></circle><circle cx="644.0" cy="233.0" r="3" fill="#4269d0" class="data-point" tabindex="0" role="img" aria-label="TypeScript: 29.8K lines (Oct 5, 2025)"><title>TypeScript: 29.8K lines (Oct 5, 2025)</title></circle><circle cx="657.0" cy="234.0" r="3" fill="#4269d0" class="data-point" tabindex="0" role="img" aria-label="TypeScript: 29.7K lines (Oct 5, 2025)"><title>TypeScript: 29.7K lines (Oct 5, 2025)</title></circle><circle cx="670.0" cy="227.0" r="3" fill="#4269d0" class="data-point" tabindex="0" role="img" aria-label="TypeScript: 30.8K lines (Oct 5, 2025)"><title>TypeScript: 30.8K lines (Oct 5, 2025)</title></circle><circle cx="683.0" cy="198.0" r="3" fill="#4269d0" class="data-point" tabindex="0" role="img" aria-label="TypeScript: 35.3K lines (Oct 5, 2025)"><title>TypeScript: 35.3K lines (Oct 5, 2025)</title></circle><circle cx="695.0" cy="198.0" r="3" fill="#4269d0" class="data-point" tabindex="0" role="img" aria-label="TypeScript: 35.3K lines (Oct 5, 2025)"><title>TypeScript: 35.3K lines (Oct 5, 2025)</title></circle><circle cx="708.0" cy="199.0" r="3" fill="#4269d0" class="data-point" tabindex="0" role="img" aria-label="TypeScript: 35.3K lines (Oct 6, 2025)"><title>TypeScript: 35.3K lines (Oct 6, 2025)</title></circle><circle cx="721.0" cy="160.0" r="3" fill="#4269d0" class="data-point" tabindex="0" role="img" aria-label="TypeScript: 41.4K lines (Oct 6, 2025)"><title>TypeScript: 41.4K lines (Oct 6, 2025)</title></circle><circle cx="734.0" cy="197.0" r="3" fill="#4269d0" class="data-point" tabindex="0" role="img" aria-label="TypeScript: 35.6K lines (Oct 6, 2025)"><title>TypeScript: 35.6K lines (Oct 6, 2025)</title></circle><circle cx="747.0" cy="196.0" r="3" fill="#4269d0" class="data-point" tabindex="0" role="img" aria-label="TypeScript: 35.7K lines (Oct 7, 2025)"><title>TypeScript: 35.7K lines (Oct 7, 2025)</title></circle><circle cx="760.0" cy="197.0" r="3" fill="#4269d0" class="data-point" tabindex="0" role="img" aria-label="TypeScript: 35.5K lines (Oct 7, 2025)"><title>TypeScript: 35.5K lines (Oct 7, 2025)</title></circle><path d="M 80.00 417.00 L 92.00 399.00 L 105.00 344.00 L 118.00 286.00 L 131.00 343.00 L 144.00 343.00 L 156.00 340.00 L 169.00 338.00 L 182.00 334.00 L 195.00 337.00 L 208.00 337.00 L 221.00 337.00 L 233.00 336.00 L 246.00 337.00 L 259.00 335.00 L 272.00 332.00 L 285.00 342.00 L 298.00 337.00 L 310.00 335.00 L 323.00 311.00 L 336.00 332.00 L 349.00 324.00 L 362.00 283.00 L 375.00 281.00 L 387.00 279.00 L 400.00 252.00 L 413.00 243.00 L 426.00 239.00 L 439.00 241.00 L 452.00 242.00 L 464.00 240.00 L 477.00 239.00 L 490.00 239.00 L 503.00 242.00 L 516.00 237.00 L 529.00 230.00 L 541.00 225.00 L 554.00 225.00 L 567.00 220.00 L 580.00 221.00 L 593.00 221.00 L 606.00 231.00 L 618.00 231.00 L 631.00 233.00 L 644.00 233.00 L 657.00 234.00 L 670.00 227.00 L 683.00 198.00 L 695.00 198.00 L 708.00 199.00 L 721.00 160.00 L 734.00 197.00 L 747.00 196.00 L 760.00 197.00" stroke="#4269d0" class="trend-line" tabindex="0" role="img" aria-label="TypeScript trend line"><title>TypeScript: 1.3M lines (optimized from 54 to 54 points)</title></path><circle cx="80.0" cy="400.0" r="3" fill="#97bbf5" class="data-point" tabindex="0" role="img" aria-label="JSON: 3.2K lines (Aug 29, 2025)"><title>JSON: 3.2K lines (Aug 29, 2025)</title></circle><circle cx="105.0" cy="340.0" r="3" fill="#97bbf5" class="data-point" tabindex="0" role="img" aria-label="JSON: 12.7K lines (Aug 30, 2025)"><title>JSON: 12.7K lines (Aug 30, 2025)</title></circle><circle cx="118.0" cy="340.0" r="3" fill="#97bbf5" class="data-point" tabindex="0" role="img" aria-label="JSON: 12.8K lines (Aug 30, 2025)"><title>JSON: 12.8K lines (Aug 30, 2025)</title></circle><circle cx="131.0" cy="340.0" r="3" fill="#97bbf5" class="data-point" tabindex="0" role="img" aria-label="JSON: 12.8K lines (Aug 30, 2025)"><title>JSON: 12.8K lines (Aug 30, 2025)</title></circle><circle cx="144.0" cy="340.0" r="3" fill="#97bbf5" class="data-point" tabindex="0" role="img" aria-label="JSON: 12.9K lines (Aug 30, 2025)"><title>JSON: 12.9K lines (Aug 30, 2025)</title></circle><circle cx="760.0" cy="416.0" r="3" fill="#97bbf5" class="data-point" tabindex="0" role="img" aria-label="JSON: 754 lines (Oct 7, 2025)"><title>JSON: 754 lines (Oct 7, 2025)</title></circle><path d="M 80.00 400.00 L 92.00 401.00 L 105.00 340.00 L 118.00 340.00 L 131.00 340.00 L 144.00 340.00 L 156.00 401.00 L 169.00 400.00 L 182.00 394.00 L 195.00 393.00 L 208.00 418.00 L 221.00 418.00 L 233.00 418.00 L 246.00 418.00 L 259.00 418.00 L 272.00 418.00 L 285.00 418.00 L 298.00 418.00 L 310.00 418.00 L 323.00 418.00 L 336.00 417.00 L 349.00 417.00 L 362.00 417.00 L 375.00 417.00 L 387.00 417.00 L 400.00 417.00 L 413.00 416.00 L 426.00 416.00 L 439.00 416.00 L 452.00 416.00 L 464.00 416.00 L 477.00 416.00 L 490.00 416.00 L 503.00 416.00 L 516.00 416.00 L 529.00 416.00 L 541.00 416.00 L 554.00 416.00 L 567.00 416.00 L 580.00 416.00 L 593.00 416.00 L 606.00 416.00 L 618.00 416.00 L 631.00 416.00 L 644.00 416.00 L 657.00 416.00 L 670.00 416.00 L 683.00 416.00 L 695.00 416.00 L 708.00 416.00 L 721.00 416.00 L 734.00 416.00 L 747.00 416.00 L 760.00 416.00" stroke="#97bbf5" class="trend-line" tabindex="0" role="img" aria-label="JSON trend line"><title>JSON: 99.5K lines (optimized from 54 to 54 points)</title></path><circle cx="80.0" cy="420.0" r="3" fill="#3ca951" class="data-point" tabindex="0" role="img" aria-label="TypeSpec: 61 lines (Aug 29, 2025)"><title>TypeSpec: 61 lines (Aug 29, 2025)</title></circle><circle cx="760.0" cy="409.0" r="3" fill="#3ca951" class="data-point" tabindex="0" role="img" aria-label="TypeSpec: 1.8K lines (Oct 7, 2025)"><title>TypeSpec: 1.8K lines (Oct 7, 2025)</title></circle><path d="M 80.00 420.00 L 92.00 419.00 L 105.00 419.00 L 118.00 418.00 L 131.00 418.00 L 144.00 418.00 L 156.00 418.00 L 169.00 418.00 L 182.00 418.00 L 195.00 418.00 L 208.00 418.00 L 221.00 417.00 L 233.00 417.00 L 246.00 417.00 L 259.00 417.00 L 272.00 417.00 L 285.00 413.00 L 298.00 416.00 L 310.00 416.00 L 323.00 416.00 L 336.00 416.00 L 349.00 416.00 L 362.00 416.00 L 375.00 416.00 L 387.00 416.00 L 400.00 410.00 L 413.00 410.00 L 426.00 410.00 L 439.00 409.00 L 452.00 409.00 L 464.00 409.00 L 477.00 409.00 L 490.00 409.00 L 503.00 409.00 L 516.00 409.00 L 529.00 409.00 L 541.00 409.00 L 554.00 409.00 L 567.00 409.00 L 580.00 409.00 L 593.00 409.00 L 606.00 409.00 L 618.00 409.00 L 631.00 409.00 L 644.00 409.00 L 657.00 409.00 L 670.00 409.00 L 683.00 409.00 L 695.00 409.00 L 708.00 409.00 L 721.00 409.00 L 734.00 409.00 L 747.00 409.00 L 760.00 409.00" stroke="#3ca951" class="trend-line" tabindex="0" role="img" aria-label="TypeSpec trend line"><title>TypeSpec: 64.6K lines (optimized from 54 to 54 points)</title></path><circle cx="80.0" cy="420.0" r="3" fill="#3ca951" class="data-point" tabindex="0" role="img" aria-label="YAML: 82 lines (Aug 29, 2025)"><title>YAML: 82 lines (Aug 29, 2025)</title></circle><circle cx="760.0" cy="410.0" r="3" fill="#3ca951" class="data-point" tabindex="0" role="img" aria-label="YAML: 1.7K lines (Oct 7, 2025)"><title>YAML: 1.7K lines (Oct 7, 2025)</title></circle><path d="M 80.00 420.00 L 92.00 420.00 L 105.00 420.00 L 118.00 420.00 L 131.00 420.00 L 144.00 420.00 L 156.00 420.00 L 169.00 420.00 L 182.00 420.00 L 195.00 420.00 L 208.00 420.00 L 221.00 420.00 L 233.00 420.00 L 246.00 420.00 L 259.00 420.00 L 272.00 420.00 L 285.00 419.00 L 298.00 417.00 L 310.00 417.00 L 323.00 417.00 L 336.00 417.00 L 349.00 418.00 L 362.00 418.00 L 375.00 418.00 L 387.00 418.00 L 400.00 412.00 L 413.00 408.00 L 426.00 408.00 L 439.00 408.00 L 452.00 408.00 L 464.00 410.00 L 477.00 410.00 L 490.00 410.00 L 503.00 410.00 L 516.00 409.00 L 529.00 409.00 L 541.00 409.00 L 554.00 409.00 L 567.00 409.00 L 580.00 407.00 L 593.00 408.00 L 606.00 408.00 L 618.00 407.00 L 631.00 407.00 L 644.00 406.00 L 657.00 407.00 L 670.00 407.00 L 683.00 407.00 L 695.00 407.00 L 708.00 407.00 L 721.00 407.00 L 734.00 407.00 L 747.00 407.00 L 760.00 410.00" stroke="#3ca951" class="trend-line" tabindex="0" role="img" aria-label="YAML trend line"><title>YAML: 61.6K lines (optimized from 54 to 54 points)</title></path><text x="65" y="420" class="axis-label" text-anchor="end" dominant-baseline="middle">0</text><text x="65" y="338" class="axis-label" text-anchor="end" dominant-baseline="middle">13.1K</text><text x="65" y="255" class="axis-label" text-anchor="end" dominant-baseline="middle">26.2K</text><text x="65" y="173" class="axis-label" text-anchor="end" dominant-baseline="middle">39.4K</text><text x="65" y="90" class="axis-label" text-anchor="end" dominant-baseline="middle">52.5K</text><text x="80" y="440" class="axis-label" text-anchor="middle">Aug 25</text><text x="246" y="440" class="axis-label" text-anchor="middle">Aug 31</text><text x="413" y="440" class="axis-label" text-anchor="middle">Sep 25</text><text x="580" y="440" class="axis-label" text-anchor="middle">Sep 20</text><text x="760" y="440" class="axis-label" text-anchor="middle">Oct 25</text><text x="20" y="255" class="axis-title" text-anchor="middle" transform="rotate(-90 20 255)">Lines</text><rect x="758" y="88" width="180" height="130" class="legend-background"/><text x="770" y="116" class="legend-title">Languages</text><g class="legend-item" tabindex="0" role="button" aria-label="Markdown: 1.4M lines"><circle cx="775" cy="132" r="5" fill="#4269d0" class="legend-color-indicator"/><text x="788" y="132" class="legend-text" dominant-baseline="middle">Markdown</text><text x="940" y="132" class="legend-count" dominant-baseline="middle" text-anchor="end">1.4M</text><title>Markdown: 1.4M lines</title></g><g class="legend-item" tabindex="0" role="button" aria-label="TypeScript: 1.3M lines"><circle cx="775" cy="150" r="5" fill="#4269d0" class="legend-color-indicator"/><text x="788" y="150" class="legend-text" dominant-baseline="middle">TypeScript</text><text x="940" y="150" class="legend-count" dominant-baseline="middle" text-anchor="end">1.3M</text><title>TypeScript: 1.3M lines</title></g><g class="legend-item" tabindex="0" role="button" aria-label="JSON: 99.5K lines"><circle cx="775" cy="168" r="5" fill="#97bbf5" class="legend-color-indicator"/><text x="788" y="168" class="legend-text" dominant-baseline="middle">JSON</text><text x="940" y="168" class="legend-count" dominant-baseline="middle" text-anchor="end">99.5K</text><title>JSON: 99.5K lines</title></g><g class="legend-item" tabindex="0" role="button" aria-label="TypeSpec: 64.6K lines"><circle cx="775" cy="186" r="5" fill="#3ca951" class="legend-color-indicator"/><text x="788" y="186" class="legend-text" dominant-baseline="middle">TypeSpec</text><text x="940" y="186" class="legend-count" dominant-baseline="middle" text-anchor="end">64.6K</text><title>TypeSpec: 64.6K lines</title></g><g class="legend-item" tabindex="0" role="button" aria-label="YAML: 61.6K lines"><circle cx="775" cy="204" r="5" fill="#3ca951" class="legend-color-indicator"/><text x="788" y="204" class="legend-text" dominant-baseline="middle">YAML</text><text x="940" y="204" class="legend-count" dominant-baseline="middle" text-anchor="end">61.6K</text><title>YAML: 61.6K lines</title></g><text x="60" y="505" class="meta-text">Aug 25 to Oct 25 • 54 commits • 91.3K total lines</text></svg>