<svg width="1000" height="520" xmlns="http://www.w3.org/2000/svg" role="img" aria-labelledby="chart-title chart-subtitle"><defs><style><![CDATA[
		.project-name { 
			font-family: -apple-system, BlinkMacSystemFont, system-ui, sans-serif; 
			font-size: 16.0px; 
			font-weight: 500; 
			fill: #4269d0; 
			letter-spacing: -0.005em;
			line-height: 1.2;
		}
		.chart-title { 
			font-family: -apple-system, BlinkMacSystemFont, system-ui, sans-serif; 
			font-size: 18.0px; 
			font-weight: 600; 
			fill: #111827; 
			letter-spacing: -0.02em;
			line-height: 1.1;
		}
		.chart-subtitle { 
			font-family: -apple-system, BlinkMacSystemFont, system-ui, sans-serif; 
			font-size: 14.0px; 
			font-weight: 400; 
			fill: #6b7280;
			letter-spacing: -0.005em;
			line-height: 1.3;
		}
		.axis-label { 
			font-family: -apple-system, BlinkMacSystemFont, system-ui, sans-serif; 
			font-size: 11.0px; 
			font-weight: 400; 
			fill: #9ca3af;
			letter-spacing: 0em;
		}
		.axis-title { 
			font-family: -apple-system, BlinkMacSystemFont, system-ui, sans-serif; 
			font-size: 12.0px; 
			font-weight: 500; 
			fill: #4b5563;
			letter-spacing: -0.005em;
		}
		.legend-title { 
			font-family: -apple-system, BlinkMacSystemFont, system-ui, sans-serif; 
			font-size: 12.0px; 
			font-weight: 600; 
			fill: #374151;
			letter-spacing: -0.01em;
		}
		.legend-text { 
			font-family: -apple-system, BlinkMacSystemFont, system-ui, sans-serif; 
			font-size: 11.0px; 
			font-weight: 400; 
			fill: #4b5563;
			letter-spacing: 0em;
		}
		.legend-count { 
			font-family: ui-monospace, 'SF Mono', 'Monaco', 'Cascadia Code', monospace; 
			font-size: 10.0px; 
			font-weight: 500; 
			fill: #6b7280;
			letter-spacing: 0.05em;
		}
		.meta-text { 
			font-family: -apple-system, BlinkMacSystemFont, system-ui, sans-serif; 
			font-size: 10.0px; 
			font-weight: 400;
			fill: #9ca3af;
			letter-spacing: 0em;
		}
		.grid-line { 
			stroke: #f1f5f9; 
			stroke-width: 0.5; 
			opacity: 1;
		}
		.grid-line-major { 
			stroke: #e2e8f0; 
			stroke-width: 0.75; 
			opacity: 1;
		}
		.chart-area { 
			fill: #ffffff;
		}
		.chart-border { 
			stroke: none;
			fill: none;
		}
		.trend-line { 
			fill: none; 
			stroke-width: 2; 
			stroke-linecap: round; 
			stroke-linejoin: round; 
			opacity: 0.9;
			transition: all 0.2s cubic-bezier(0.4, 0, 0.2, 1);
			cursor: pointer;
		}
		.trend-line:hover { 
			stroke-width: 3;
			opacity: 1;
			filter: drop-shadow(0 0 4px rgba(0,0,0,0.1));
		}
		.trend-line:focus { 
			outline: 2px solid #4269d0;
			outline-offset: 2px;
			stroke-width: 3;
		}
		.data-point { 
			fill: #ffffff;
			stroke-width: 2;
			transition: all 0.15s cubic-bezier(0.4, 0, 0.2, 1);
			cursor: pointer;
		}
		.data-point:hover { 
			r: 6;
			stroke: #ffffff;
			stroke-width: 3;
			filter: drop-shadow(0 2px 4px rgba(0,0,0,0.15));
		}
		.data-point:focus { 
			outline: 2px solid #4269d0;
			outline-offset: 2px;
			r: 6;
		}
		.data-point:active {
			transform: scale(0.95);
		}
		.legend-background { 
			fill: #fafafa; 
			stroke: #e4e4e7; 
			stroke-width: 0.5; 
			rx: 6;
			transition: all 0.2s cubic-bezier(0.4, 0, 0.2, 1);
		}
		.legend-background:hover {
			stroke: #d1d5db;
			fill: #ffffff;
		}
		.legend-item { 
			cursor: pointer;
			transition: all 0.15s cubic-bezier(0.4, 0, 0.2, 1);
		}
		.legend-item:hover {
			opacity: 1;
			transform: translateX(2px);
		}
		.legend-item:focus {
			outline: 2px solid #4269d0;
			outline-offset: 1px;
			border-radius: 4px;
		}
		.legend-color-indicator { 
			rx: 1;
			transition: all 0.15s cubic-bezier(0.4, 0, 0.2, 1);
		}
		.legend-item:hover .legend-color-indicator {
			rx: 2;
			transform: scale(1.1);
			filter: drop-shadow(0 1px 3px rgba(0,0,0,0.1));
		}
		.legend-text {
			transition: all 0.15s cubic-bezier(0.4, 0, 0.2, 1);
		}
		.legend-item:hover .legend-text {
			fill: #111827;
			font-weight: 500;
		}
		@media (prefers-reduced-motion: reduce) {
			* {
				transition: none !important;
				animation: none !important;
			}
		}
	]]></style></defs><rect width="1000" height="520" fill="#ffffff"/><text id="chart-title" x="500" y="28" class="project-name" text-anchor="middle">Project</text><text x="500" y="48" class="chart-title" text-anchor="middle">Language Trends</text><text id="chart-subtitle" x="500" y="65" class="chart-subtitle" text-anchor="middle">Lines of code over time</text><rect x="80" y="90" width="680" height="330" class="chart-area"/><line x1="80" y1="90" x2="760" y2="90" class="grid-line-major"/><line x1="80" y1="156" x2="760" y2="156" class="grid-line"/><line x1="80" y1="222" x2="760" y2="222" class="grid-line"/><line x1="80" y1="288" x2="760" y2="288" class="grid-line"/><line x1="80" y1="354" x2="760" y2="354" class="grid-line"/><line x1="80" y1="420" x2="760" y2="420" class="grid-line-major"/><circle cx="80.0" cy="416.0" r="3" fill="#4269d0" class="data-point" tabindex="0" role="img" aria-label="Markdown: 941 lines (May 29, 2025)"><title>Markdown: 941 lines (May 29, 2025)</title></circle><circle cx="96.0" cy="373.0" r="3" fill="#4269d0" class="data-point" tabindex="0" role="img" aria-label="Markdown: 10.8K lines (May 29, 2025)"><title>Markdown: 10.8K lines (May 29, 2025)</title></circle><circle cx="104.0" cy="363.0" r="3" fill="#4269d0" class="data-point" tabindex="0" role="img" aria-label="Markdown: 13.0K lines (May 29, 2025)"><title>Markdown: 13.0K lines (May 29, 2025)</title></circle><circle cx="112.0" cy="360.0" r="3" fill="#4269d0" class="data-point" tabindex="0" role="img" aria-label="Markdown: 13.7K lines (May 29, 2025)"><title>Markdown: 13.7K lines (May 29, 2025)</title></circle><circle cx="120.0" cy="348.0" r="3" fill="#4269d0" class="data-point" tabindex="0" role="img" aria-label="Markdown: 16.5K lines (Jun 22, 2025)"><title>Markdown: 16.5K lines (Jun 22, 2025)</title></circle><circle cx="128.0" cy="348.0" r="3" fill="#4269d0" class="data-point" tabindex="0" role="img" aria-label="Markdown: 16.6K lines (Jul 4, 2025)"><title>Markdown: 16.6K lines (Jul 4, 2025)</title></circle><circle cx="136.0" cy="348.0" r="3" fill="#4269d0" class="data-point" tabindex="0" role="img" aria-label="Markdown: 16.6K lines (Jul 4, 2025)"><title>Markdown: 16.6K lines (Jul 4, 2025)</title></circle><circle cx="144.0" cy="347.0" r="3" fill="#4269d0" class="data-point" tabindex="0" role="img" aria-label="Markdown: 16.8K lines (Jul 4, 2025)"><title>Markdown: 16.8K lines (Jul 4, 2025)</title></circle><circle cx="152.0" cy="341.0" r="3" fill="#4269d0" class="data-point" tabindex="0" role="img" aria-label="Markdown: 18.0K lines (Jul 5, 2025)"><title>Markdown: 18.0K lines (Jul 5, 2025)</title></circle><circle cx="160.0" cy="341.0" r="3" fill="#4269d0" class="data-point" tabindex="0" role="img" aria-label="Markdown: 18.0K lines (Jul 9, 2025)"><title>Markdown: 18.0K lines (Jul 9, 2025)</title></circle><circle cx="168.0" cy="341.0" r="3" fill="#4269d0" class="data-point" tabindex="0" role="img" aria-label="Markdown: 18.0K lines (Jul 9, 2025)"><title>Markdown: 18.0K lines (Jul 9, 2025)</title></circle><circle cx="176.0" cy="339.0" r="3" fill="#4269d0" class="data-point" tabindex="0" role="img" aria-label="Markdown: 18.4K lines (Jul 9, 2025)"><title>Markdown: 18.4K lines (Jul 9, 2025)</title></circle><circle cx="184.0" cy="339.0" r="3" fill="#4269d0" class="data-point" tabindex="0" role="img" aria-label="Markdown: 18.4K lines (Jul 10, 2025)"><title>Markdown: 18.4K lines (Jul 10, 2025)</title></circle><circle cx="192.0" cy="340.0" r="3" fill="#4269d0" class="data-point" tabindex="0" role="img" aria-label="Markdown: 18.4K lines (Jul 10, 2025)"><title>Markdown: 18.4K lines (Jul 10, 2025)</title></circle><circle cx="200.0" cy="340.0" r="3" fill="#4269d0" class="data-point" tabindex="0" role="img" aria-label="Markdown: 18.4K lines (Jul 27, 2025)"><title>Markdown: 18.4K lines (Jul 27, 2025)</title></circle><circle cx="208.0" cy="340.0" r="3" fill="#4269d0" class="data-point" tabindex="0" role="img" aria-label="Markdown: 18.4K lines (Aug 3, 2025)"><title>Markdown: 18.4K lines (Aug 3, 2025)</title></circle><circle cx="216.0" cy="336.0" r="3" fill="#4269d0" class="data-point" tabindex="0" role="img" aria-label="Markdown: 19.2K lines (Aug 4, 2025)"><title>Markdown: 19.2K lines (Aug 4, 2025)</title></circle><circle cx="224.0" cy="334.0" r="3" fill="#4269d0" class="data-point" tabindex="0" role="img" aria-label="Markdown: 19.7K lines (Aug 4, 2025)"><title>Markdown: 19.7K lines (Aug 4, 2025)</title></circle><circle cx="232.0" cy="314.0" r="3" fill="#4269d0" class="data-point" tabindex="0" role="img" aria-label="Markdown: 24.2K lines (Aug 6, 2025)"><title>Markdown: 24.2K lines (Aug 6, 2025)</title></circle><circle cx="240.0" cy="315.0" r="3" fill="#4269d0" class="data-point" tabindex="0" role="img" aria-label="Markdown: 24.1K lines (Aug 6, 2025)"><title>Markdown: 24.1K lines (Aug 6, 2025)</title></circle><circle cx="248.0" cy="314.0" r="3" fill="#4269d0" class="data-point" tabindex="0" role="img" aria-label="Markdown: 24.3K lines (Aug 7, 2025)"><title>Markdown: 24.3K lines (Aug 7, 2025)</title></circle><circle cx="256.0" cy="307.0" r="3" fill="#4269d0" class="data-point" tabindex="0" role="img" aria-label="Markdown: 25.7K lines (Aug 8, 2025)"><title>Markdown: 25.7K lines (Aug 8, 2025)</title></circle><circle cx="264.0" cy="299.0" r="3" fill="#4269d0" class="data-point" tabindex="0" role="img" aria-label="Markdown: 27.7K lines (Aug 9, 2025)"><title>Markdown: 27.7K lines (Aug 9, 2025)</title></circle><circle cx="272.0" cy="297.0" r="3" fill="#4269d0" class="data-point" tabindex="0" role="img" aria-label="Markdown: 28.0K lines (Aug 14, 2025)"><title>Markdown: 28.0K lines (Aug 14, 2025)</title></circle><circle cx="280.0" cy="297.0" r="3" fill="#4269d0" class="data-point" tabindex="0" role="img" aria-label="Markdown: 28.0K lines (Aug 14, 2025)"><title>Markdown: 28.0K lines (Aug 14, 2025)</title></circle><circle cx="288.0" cy="290.0" r="3" fill="#4269d0" class="data-point" tabindex="0" role="img" aria-label="Markdown: 29.8K lines (Aug 16, 2025)"><title>Markdown: 29.8K lines (Aug 16, 2025)</title></circle><circle cx="520.0" cy="387.0" r="3" fill="#4269d0" class="data-point" tabindex="0" role="img" aria-label="Markdown: 7.7K lines (Aug 31, 2025)"><title>Markdown: 7.7K lines (Aug 31, 2025)</title></circle><circle cx="528.0" cy="386.0" r="3" fill="#4269d0" class="data-point" tabindex="0" role="img" aria-label="Markdown: 7.9K lines (Aug 31, 2025)"><title>Markdown: 7.9K lines (Aug 31, 2025)</title></circle><circle cx="536.0" cy="385.0" r="3" fill="#4269d0" class="data-point" tabindex="0" role="img" aria-label="Markdown: 8.1K lines (Aug 31, 2025)"><title>Markdown: 8.1K lines (Aug 31, 2025)</title></circle><circle cx="544.0" cy="383.0" r="3" fill="#4269d0" class="data-point" tabindex="0" role="img" aria-label="Markdown: 8.5K lines (Aug 31, 2025)"><title>Markdown: 8.5K lines (Aug 31, 2025)</title></circle><circle cx="552.0" cy="381.0" r="3" fill="#4269d0" class="data-point" tabindex="0" role="img" aria-label="Markdown: 8.9K lines (Aug 31, 2025)"><title>Markdown: 8.9K lines (Aug 31, 2025)</title></circle><circle cx="560.0" cy="380.0" r="3" fill="#4269d0" class="data-point" tabindex="0" role="img" aria-label="Markdown: 9.1K lines (Aug 31, 2025)"><title>Markdown: 9.1K lines (Aug 31, 2025)</title></circle><circle cx="568.0" cy="380.0" r="3" fill="#4269d0" class="data-point" tabindex="0" role="img" aria-label="Markdown: 9.1K lines (Aug 31, 2025)"><title>Markdown: 9.1K lines (Aug 31, 2025)</title></circle><circle cx="576.0" cy="380.0" r="3" fill="#4269d0" class="data-point" tabindex="0" role="img" aria-label="Markdown: 9.3K lines (Sep 1, 2025)"><title>Markdown: 9.3K lines (Sep 1, 2025)</title></circle><circle cx="584.0" cy="380.0" r="3" fill="#4269d0" class="data-point" tabindex="0" role="img" aria-label="Markdown: 9.3K lines (Sep 1, 2025)"><title>Markdown: 9.3K lines (Sep 1, 2025)</title></circle><circle cx="592.0" cy="377.0" r="3" fill="#4269d0" class="data-point" tabindex="0" role="img" aria-label="Markdown: 9.9K lines (Sep 1, 2025)"><title>Markdown: 9.9K lines (Sep 1, 2025)</title></circle><circle cx="600.0" cy="375.0" r="3" fill="#4269d0" class="data-point" tabindex="0" role="img" aria-label="Markdown: 10.3K lines (Sep 1, 2025)"><title>Markdown: 10.3K lines (Sep 1, 2025)</title></circle><circle cx="608.0" cy="372.0" r="3" fill="#4269d0" class="data-point" tabindex="0" role="img" aria-label="Markdown: 11.1K lines (Sep 1, 2025)"><title>Markdown: 11.1K lines (Sep 1, 2025)</title></circle><circle cx="616.0" cy="371.0" r="3" fill="#4269d0" class="data-point" tabindex="0" role="img" aria-label="Markdown: 11.3K lines (Sep 1, 2025)"><title>Markdown: 11.3K lines (Sep 1, 2025)</title></circle><circle cx="624.0" cy="368.0" r="3" fill="#4269d0" class="data-point" tabindex="0" role="img" aria-label="Markdown: 12.0K lines (Sep 1, 2025)"><title>Markdown: 12.0K lines (Sep 1, 2025)</title></circle><circle cx="632.0" cy="365.0" r="3" fill="#4269d0" class="data-point" tabindex="0" role="img" aria-label="Markdown: 12.7K lines (Sep 1, 2025)"><title>Markdown: 12.7K lines (Sep 1, 2025)</title></circle><circle cx="640.0" cy="148.0" r="3" fill="#4269d0" class="data-point" tabindex="0" role="img" aria-label="Markdown: 61.9K lines (Sep 1, 2025)"><title>Markdown: 61.9K lines (Sep 1, 2025)</title></circle><circle cx="648.0" cy="363.0" r="3" fill="#4269d0" class="data-point" tabindex="0" role="img" aria-label="Markdown: 13.0K lines (Sep 1, 2025)"><title>Markdown: 13.0K lines (Sep 1, 2025)</title></circle><circle cx="656.0" cy="362.0" r="3" fill="#4269d0" class="data-point" tabindex="0" role="img" aria-label="Markdown: 13.4K lines (Sep 1, 2025)"><title>Markdown: 13.4K lines (Sep 1, 2025)</title></circle><circle cx="664.0" cy="146.0" r="3" fill="#4269d0" class="data-point" tabindex="0" role="img" aria-label="Markdown: 62.5K lines (Sep 1, 2025)"><title>Markdown: 62.5K lines (Sep 1, 2025)</title></circle><circle cx="672.0" cy="355.0" r="3" fill="#4269d0" class="data-point" tabindex="0" role="img" aria-label="Markdown: 14.9K lines (Sep 1, 2025)"><title>Markdown: 14.9K lines (Sep 1, 2025)</title></circle><circle cx="680.0" cy="348.0" r="3" fill="#4269d0" class="data-point" tabindex="0" role="img" aria-label="Markdown: 16.6K lines (Sep 2, 2025)"><title>Markdown: 16.6K lines (Sep 2, 2025)</title></circle><circle cx="688.0" cy="347.0" r="3" fill="#4269d0" class="data-point" tabindex="0" role="img" aria-label="Markdown: 16.7K lines (Sep 2, 2025)"><title>Markdown: 16.7K lines (Sep 2, 2025)</title></circle><circle cx="696.0" cy="138.0" r="3" fill="#4269d0" class="data-point" tabindex="0" role="img" aria-label="Markdown: 64.2K lines (Sep 2, 2025)"><title>Markdown: 64.2K lines (Sep 2, 2025)</title></circle><circle cx="704.0" cy="347.0" r="3" fill="#4269d0" class="data-point" tabindex="0" role="img" aria-label="Markdown: 16.7K lines (Sep 2, 2025)"><title>Markdown: 16.7K lines (Sep 2, 2025)</title></circle><circle cx="712.0" cy="134.0" r="3" fill="#4269d0" class="data-point" tabindex="0" role="img" aria-label="Markdown: 65.1K lines (Sep 2, 2025)"><title>Markdown: 65.1K lines (Sep 2, 2025)</title></circle><circle cx="720.0" cy="347.0" r="3" fill="#4269d0" class="data-point" tabindex="0" role="img" aria-label="Markdown: 16.8K lines (Sep 2, 2025)"><title>Markdown: 16.8K lines (Sep 2, 2025)</title></circle><circle cx="728.0" cy="346.0" r="3" fill="#4269d0" class="data-point" tabindex="0" role="img" aria-label="Markdown: 17.0K lines (Sep 2, 2025)"><title>Markdown: 17.0K lines (Sep 2, 2025)</title></circle><circle cx="736.0" cy="133.0" r="3" fill="#4269d0" class="data-point" tabindex="0" role="img" aria-label="Markdown: 65.3K lines (Sep 2, 2025)"><title>Markdown: 65.3K lines (Sep 2, 2025)</title></circle><circle cx="744.0" cy="311.0" r="3" fill="#4269d0" class="data-point" tabindex="0" role="img" aria-label="Markdown: 24.9K lines (Sep 2, 2025)"><title>Markdown: 24.9K lines (Sep 2, 2025)</title></circle><circle cx="752.0" cy="133.0" r="3" fill="#4269d0" class="data-point" tabindex="0" role="img" aria-label="Markdown: 65.3K lines (Sep 2, 2025)"><title>Markdown: 65.3K lines (Sep 2, 2025)</title></circle><circle cx="760.0" cy="311.0" r="3" fill="#4269d0" class="data-point" tabindex="0" role="img" aria-label="Markdown: 24.9K lines (Sep 2, 2025)"><title>Markdown: 24.9K lines (Sep 2, 2025)</title></circle><path d="M 80.00 416.00 L 88.00 401.00 L 96.00 373.00 L 104.00 363.00 L 112.00 360.00 L 120.00 348.00 L 128.00 348.00 L 136.00 348.00 L 144.00 347.00 L 152.00 341.00 L 160.00 341.00 L 168.00 341.00 L 176.00 339.00 L 184.00 339.00 L 192.00 340.00 L 200.00 340.00 L 208.00 340.00 L 216.00 336.00 L 224.00 334.00 L 232.00 314.00 L 240.00 315.00 L 248.00 314.00 L 256.00 307.00 L 264.00 299.00 L 272.00 297.00 L 280.00 297.00 L 288.00 290.00 L 296.00 420.00 L 304.00 419.00 L 312.00 415.00 L 320.00 413.00 L 328.00 410.00 L 336.00 407.00 L 344.00 406.00 L 352.00 404.00 L 360.00 404.00 L 368.00 398.00 L 376.00 398.00 L 384.00 397.00 L 392.00 396.00 L 400.00 396.00 L 408.00 394.00 L 416.00 393.00 L 424.00 393.00 L 432.00 392.00 L 440.00 392.00 L 448.00 391.00 L 456.00 390.00 L 464.00 390.00 L 472.00 390.00 L 480.00 390.00 L 488.00 389.00 L 496.00 389.00 L 504.00 389.00 L 512.00 389.00 L 520.00 387.00 L 528.00 386.00 L 536.00 385.00 L 544.00 383.00 L 552.00 381.00 L 560.00 380.00 L 568.00 380.00 L 576.00 380.00 L 584.00 380.00 L 592.00 377.00 L 600.00 375.00 L 608.00 372.00 L 616.00 371.00 L 624.00 368.00 L 632.00 365.00 L 640.00 148.00 L 648.00 363.00 L 656.00 362.00 L 664.00 146.00 L 672.00 355.00 L 680.00 348.00 L 688.00 347.00 L 696.00 138.00 L 704.00 347.00 L 712.00 134.00 L 720.00 347.00 L 728.00 346.00 L 736.00 133.00 L 744.00 311.00 L 752.00 133.00 L 760.00 311.00" stroke="#4269d0" class="trend-line" tabindex="0" role="img" aria-label="Markdown trend line"><title>Markdown: 1.4M lines (optimized from 86 to 86 points)</title></path><circle cx="80.0" cy="414.0" r="3" fill="#97bbf5" class="data-point" tabindex="0" role="img" aria-label="Go: 1.6K lines (May 29, 2025)"><title>Go: 1.6K lines (May 29, 2025)</title></circle><circle cx="120.0" cy="376.0" r="3" fill="#97bbf5" class="data-point" tabindex="0" role="img" aria-label="Go: 10.1K lines (Jun 22, 2025)"><title>Go: 10.1K lines (Jun 22, 2025)</title></circle><circle cx="128.0" cy="372.0" r="3" fill="#97bbf5" class="data-point" tabindex="0" role="img" aria-label="Go: 11.0K lines (Jul 4, 2025)"><title>Go: 11.0K lines (Jul 4, 2025)</title></circle><circle cx="136.0" cy="369.0" r="3" fill="#97bbf5" class="data-point" tabindex="0" role="img" aria-label="Go: 11.7K lines (Jul 4, 2025)"><title>Go: 11.7K lines (Jul 4, 2025)</title></circle><circle cx="144.0" cy="368.0" r="3" fill="#97bbf5" class="data-point" tabindex="0" role="img" aria-label="Go: 11.9K lines (Jul 4, 2025)"><title>Go: 11.9K lines (Jul 4, 2025)</title></circle><circle cx="152.0" cy="370.0" r="3" fill="#97bbf5" class="data-point" tabindex="0" role="img" aria-label="Go: 11.5K lines (Jul 5, 2025)"><title>Go: 11.5K lines (Jul 5, 2025)</title></circle><circle cx="160.0" cy="367.0" r="3" fill="#97bbf5" class="data-point" tabindex="0" role="img" aria-label="Go: 12.2K lines (Jul 9, 2025)"><title>Go: 12.2K lines (Jul 9, 2025)</title></circle><circle cx="168.0" cy="359.0" r="3" fill="#97bbf5" class="data-point" tabindex="0" role="img" aria-label="Go: 14.1K lines (Jul 9, 2025)"><title>Go: 14.1K lines (Jul 9, 2025)</title></circle><circle cx="176.0" cy="304.0" r="3" fill="#97bbf5" class="data-point" tabindex="0" role="img" aria-label="Go: 26.5K lines (Jul 9, 2025)"><title>Go: 26.5K lines (Jul 9, 2025)</title></circle><circle cx="184.0" cy="271.0" r="3" fill="#97bbf5" class="data-point" tabindex="0" role="img" aria-label="Go: 33.9K lines (Jul 10, 2025)"><title>Go: 33.9K lines (Jul 10, 2025)</title></circle><circle cx="192.0" cy="271.0" r="3" fill="#97bbf5" class="data-point" tabindex="0" role="img" aria-label="Go: 34.1K lines (Jul 10, 2025)"><title>Go: 34.1K lines (Jul 10, 2025)</title></circle><circle cx="200.0" cy="265.0" r="3" fill="#97bbf5" class="data-point" tabindex="0" role="img" aria-label="Go: 35.4K lines (Jul 27, 2025)"><title>Go: 35.4K lines (Jul 27, 2025)</title></circle><circle cx="208.0" cy="264.0" r="3" fill="#97bbf5" class="data-point" tabindex="0" role="img" aria-label="Go: 35.5K lines (Aug 3, 2025)"><title>Go: 35.5K lines (Aug 3, 2025)</title></circle><circle cx="216.0" cy="264.0" r="3" fill="#97bbf5" class="data-point" tabindex="0" role="img" aria-label="Go: 35.6K lines (Aug 4, 2025)"><title>Go: 35.6K lines (Aug 4, 2025)</title></circle><circle cx="224.0" cy="300.0" r="3" fill="#97bbf5" class="data-point" tabindex="0" role="img" aria-label="Go: 27.5K lines (Aug 4, 2025)"><title>Go: 27.5K lines (Aug 4, 2025)</title></circle><circle cx="232.0" cy="292.0" r="3" fill="#97bbf5" class="data-point" tabindex="0" role="img" aria-label="Go: 29.1K lines (Aug 6, 2025)"><title>Go: 29.1K lines (Aug 6, 2025)</title></circle><circle cx="240.0" cy="287.0" r="3" fill="#97bbf5" class="data-point" tabindex="0" role="img" aria-label="Go: 30.2K lines (Aug 6, 2025)"><title>Go: 30.2K lines (Aug 6, 2025)</title></circle><circle cx="248.0" cy="284.0" r="3" fill="#97bbf5" class="data-point" tabindex="0" role="img" aria-label="Go: 31.0K lines (Aug 7, 2025)"><title>Go: 31.0K lines (Aug 7, 2025)</title></circle><circle cx="256.0" cy="272.0" r="3" fill="#97bbf5" class="data-point" tabindex="0" role="img" aria-label="Go: 33.7K lines (Aug 8, 2025)"><title>Go: 33.7K lines (Aug 8, 2025)</title></circle><circle cx="264.0" cy="261.0" r="3" fill="#97bbf5" class="data-point" tabindex="0" role="img" aria-label="Go: 36.2K lines (Aug 9, 2025)"><title>Go: 36.2K lines (Aug 9, 2025)</title></circle><circle cx="272.0" cy="263.0" r="3" fill="#97bbf5" class="data-point" tabindex="0" role="img" aria-label="Go: 35.7K lines (Aug 14, 2025)"><title>Go: 35.7K lines (Aug 14, 2025)</title></circle><circle cx="280.0" cy="257.0" r="3" fill="#97bbf5" class="data-point" tabindex="0" role="img" aria-label="Go: 37.1K lines (Aug 14, 2025)"><title>Go: 37.1K lines (Aug 14, 2025)</title></circle><circle cx="288.0" cy="251.0" r="3" fill="#97bbf5" class="data-point" tabindex="0" role="img" aria-label="Go: 38.5K lines (Aug 16, 2025)"><title>Go: 38.5K lines (Aug 16, 2025)</title></circle><circle cx="640.0" cy="119.0" r="3" fill="#97bbf5" class="data-point" tabindex="0" role="img" aria-label="Go: 68.5K lines (Sep 1, 2025)"><title>Go: 68.5K lines (Sep 1, 2025)</title></circle><circle cx="664.0" cy="119.0" r="3" fill="#97bbf5" class="data-point" tabindex="0" role="img" aria-label="Go: 68.6K lines (Sep 1, 2025)"><title>Go: 68.6K lines (Sep 1, 2025)</title></circle><circle cx="696.0" cy="105.0" r="3" fill="#97bbf5" class="data-point" tabindex="0" role="img" aria-label="Go: 71.7K lines (Sep 2, 2025)"><title>Go: 71.7K lines (Sep 2, 2025)</title></circle><circle cx="712.0" cy="105.0" r="3" fill="#97bbf5" class="data-point" tabindex="0" role="img" aria-label="Go: 71.7K lines (Sep 2, 2025)"><title>Go: 71.7K lines (Sep 2, 2025)</title></circle><circle cx="736.0" cy="102.0" r="3" fill="#97bbf5" class="data-point" tabindex="0" role="img" aria-label="Go: 72.3K lines (Sep 2, 2025)"><title>Go: 72.3K lines (Sep 2, 2025)</title></circle><circle cx="752.0" cy="102.0" r="3" fill="#97bbf5" class="data-point" tabindex="0" role="img" aria-label="Go: 72.3K lines (Sep 2, 2025)"><title>Go: 72.3K lines (Sep 2, 2025)</title></circle><circle cx="760.0" cy="420.0" r="3" fill="#97bbf5" class="data-point" tabindex="0" role="img" aria-label="Go: 0 lines (Sep 2, 2025)"><title>Go: 0 lines (Sep 2, 2025)</title></circle><path d="M 80.00 414.00 L 88.00 408.00 L 96.00 404.00 L 104.00 403.00 L 112.00 390.00 L 120.00 376.00 L 128.00 372.00 L 136.00 369.00 L 144.00 368.00 L 152.00 370.00 L 160.00 367.00 L 168.00 359.00 L 176.00 304.00 L 184.00 271.00 L 192.00 271.00 L 200.00 265.00 L 208.00 264.00 L 216.00 264.00 L 224.00 300.00 L 232.00 292.00 L 240.00 287.00 L 248.00 284.00 L 256.00 272.00 L 264.00 261.00 L 272.00 263.00 L 280.00 257.00 L 288.00 251.00 L 296.00 420.00 L 304.00 420.00 L 312.00 420.00 L 320.00 420.00 L 328.00 420.00 L 336.00 420.00 L 344.00 420.00 L 352.00 420.00 L 360.00 420.00 L 368.00 420.00 L 376.00 420.00 L 384.00 420.00 L 392.00 420.00 L 400.00 420.00 L 408.00 420.00 L 416.00 420.00 L 424.00 420.00 L 432.00 420.00 L 440.00 420.00 L 448.00 420.00 L 456.00 420.00 L 464.00 420.00 L 472.00 420.00 L 480.00 420.00 L 488.00 420.00 L 496.00 420.00 L 504.00 420.00 L 512.00 420.00 L 520.00 420.00 L 528.00 420.00 L 536.00 420.00 L 544.00 420.00 L 552.00 420.00 L 560.00 420.00 L 568.00 420.00 L 576.00 420.00 L 584.00 420.00 L 592.00 420.00 L 600.00 420.00 L 608.00 420.00 L 616.00 420.00 L 624.00 420.00 L 632.00 420.00 L 640.00 119.00 L 648.00 420.00 L 656.00 420.00 L 664.00 119.00 L 672.00 420.00 L 680.00 420.00 L 688.00 420.00 L 696.00 105.00 L 704.00 420.00 L 712.00 105.00 L 720.00 420.00 L 728.00 420.00 L 736.00 102.00 L 744.00 420.00 L 752.00 102.00 L 760.00 420.00" stroke="#97bbf5" class="trend-line" tabindex="0" role="img" aria-label="Go trend line"><title>Go: 1.0M lines (optimized from 86 to 86 points)</title></path><circle cx="80.0" cy="420.0" r="3" fill="#3ca951" class="data-point" tabindex="0" role="img" aria-label="TypeScript: 0 lines (May 29, 2025)"><title>TypeScript: 0 lines (May 29, 2025)</title></circle><circle cx="328.0" cy="363.0" r="3" fill="#3ca951" class="data-point" tabindex="0" role="img" aria-label="TypeScript: 13.0K lines (Aug 30, 2025)"><title>TypeScript: 13.0K lines (Aug 30, 2025)</title></circle><circle cx="336.0" cy="360.0" r="3" fill="#3ca951" class="data-point" tabindex="0" role="img" aria-label="TypeScript: 13.7K lines (Aug 30, 2025)"><title>TypeScript: 13.7K lines (Aug 30, 2025)</title></circle><circle cx="344.0" cy="360.0" r="3" fill="#3ca951" class="data-point" tabindex="0" role="img" aria-label="TypeScript: 13.7K lines (Aug 30, 2025)"><title>TypeScript: 13.7K lines (Aug 30, 2025)</title></circle><circle cx="352.0" cy="344.0" r="3" fill="#3ca951" class="data-point" tabindex="0" role="img" aria-label="TypeScript: 17.3K lines (Aug 30, 2025)"><title>TypeScript: 17.3K lines (Aug 30, 2025)</title></circle><circle cx="360.0" cy="323.0" r="3" fill="#3ca951" class="data-point" tabindex="0" role="img" aria-label="TypeScript: 22.2K lines (Aug 30, 2025)"><title>TypeScript: 22.2K lines (Aug 30, 2025)</title></circle><circle cx="368.0" cy="315.0" r="3" fill="#3ca951" class="data-point" tabindex="0" role="img" aria-label="TypeScript: 23.9K lines (Aug 30, 2025)"><title>TypeScript: 23.9K lines (Aug 30, 2025)</title></circle><circle cx="376.0" cy="360.0" r="3" fill="#3ca951" class="data-point" tabindex="0" role="img" aria-label="TypeScript: 13.8K lines (Aug 30, 2025)"><title>TypeScript: 13.8K lines (Aug 30, 2025)</title></circle><circle cx="384.0" cy="360.0" r="3" fill="#3ca951" class="data-point" tabindex="0" role="img" aria-label="TypeScript: 13.8K lines (Aug 30, 2025)"><title>TypeScript: 13.8K lines (Aug 30, 2025)</title></circle><circle cx="392.0" cy="360.0" r="3" fill="#3ca951" class="data-point" tabindex="0" role="img" aria-label="TypeScript: 13.8K lines (Aug 30, 2025)"><title>TypeScript: 13.8K lines (Aug 30, 2025)</title></circle><circle cx="400.0" cy="360.0" r="3" fill="#3ca951" class="data-point" tabindex="0" role="img" aria-label="TypeScript: 13.8K lines (Aug 30, 2025)"><title>TypeScript: 13.8K lines (Aug 30, 2025)</title></circle><circle cx="408.0" cy="358.0" r="3" fill="#3ca951" class="data-point" tabindex="0" role="img" aria-label="TypeScript: 14.2K lines (Aug 30, 2025)"><title>TypeScript: 14.2K lines (Aug 30, 2025)</title></circle><circle cx="416.0" cy="358.0" r="3" fill="#3ca951" class="data-point" tabindex="0" role="img" aria-label="TypeScript: 14.1K lines (Aug 30, 2025)"><title>TypeScript: 14.1K lines (Aug 30, 2025)</title></circle><circle cx="424.0" cy="356.0" r="3" fill="#3ca951" class="data-point" tabindex="0" role="img" aria-label="TypeScript: 14.6K lines (Aug 30, 2025)"><title>TypeScript: 14.6K lines (Aug 30, 2025)</title></circle><circle cx="432.0" cy="356.0" r="3" fill="#3ca951" class="data-point" tabindex="0" role="img" aria-label="TypeScript: 14.6K lines (Aug 31, 2025)"><title>TypeScript: 14.6K lines (Aug 31, 2025)</title></circle><circle cx="440.0" cy="356.0" r="3" fill="#3ca951" class="data-point" tabindex="0" role="img" aria-label="TypeScript: 14.6K lines (Aug 31, 2025)"><title>TypeScript: 14.6K lines (Aug 31, 2025)</title></circle><circle cx="448.0" cy="355.0" r="3" fill="#3ca951" class="data-point" tabindex="0" role="img" aria-label="TypeScript: 14.9K lines (Aug 31, 2025)"><title>TypeScript: 14.9K lines (Aug 31, 2025)</title></circle><circle cx="456.0" cy="354.0" r="3" fill="#3ca951" class="data-point" tabindex="0" role="img" aria-label="TypeScript: 15.2K lines (Aug 31, 2025)"><title>TypeScript: 15.2K lines (Aug 31, 2025)</title></circle><circle cx="464.0" cy="355.0" r="3" fill="#3ca951" class="data-point" tabindex="0" role="img" aria-label="TypeScript: 14.9K lines (Aug 31, 2025)"><title>TypeScript: 14.9K lines (Aug 31, 2025)</title></circle><circle cx="472.0" cy="355.0" r="3" fill="#3ca951" class="data-point" tabindex="0" role="img" aria-label="TypeScript: 14.8K lines (Aug 31, 2025)"><title>TypeScript: 14.8K lines (Aug 31, 2025)</title></circle><circle cx="480.0" cy="355.0" r="3" fill="#3ca951" class="data-point" tabindex="0" role="img" aria-label="TypeScript: 14.8K lines (Aug 31, 2025)"><title>TypeScript: 14.8K lines (Aug 31, 2025)</title></circle><circle cx="488.0" cy="355.0" r="3" fill="#3ca951" class="data-point" tabindex="0" role="img" aria-label="TypeScript: 14.8K lines (Aug 31, 2025)"><title>TypeScript: 14.8K lines (Aug 31, 2025)</title></circle><circle cx="496.0" cy="355.0" r="3" fill="#3ca951" class="data-point" tabindex="0" role="img" aria-label="TypeScript: 14.8K lines (Aug 31, 2025)"><title>TypeScript: 14.8K lines (Aug 31, 2025)</title></circle><circle cx="504.0" cy="356.0" r="3" fill="#3ca951" class="data-point" tabindex="0" role="img" aria-label="TypeScript: 14.7K lines (Aug 31, 2025)"><title>TypeScript: 14.7K lines (Aug 31, 2025)</title></circle><circle cx="512.0" cy="356.0" r="3" fill="#3ca951" class="data-point" tabindex="0" role="img" aria-label="TypeScript: 14.7K lines (Aug 31, 2025)"><title>TypeScript: 14.7K lines (Aug 31, 2025)</title></circle><circle cx="520.0" cy="356.0" r="3" fill="#3ca951" class="data-point" tabindex="0" role="img" aria-label="TypeScript: 14.8K lines (Aug 31, 2025)"><title>TypeScript: 14.8K lines (Aug 31, 2025)</title></circle><circle cx="528.0" cy="355.0" r="3" fill="#3ca951" class="data-point" tabindex="0" role="img" aria-label="TypeScript: 14.9K lines (Aug 31, 2025)"><title>TypeScript: 14.9K lines (Aug 31, 2025)</title></circle><circle cx="536.0" cy="356.0" r="3" fill="#3ca951" class="data-point" tabindex="0" role="img" aria-label="TypeScript: 14.7K lines (Aug 31, 2025)"><title>TypeScript: 14.7K lines (Aug 31, 2025)</title></circle><circle cx="544.0" cy="356.0" r="3" fill="#3ca951" class="data-point" tabindex="0" role="img" aria-label="TypeScript: 14.7K lines (Aug 31, 2025)"><title>TypeScript: 14.7K lines (Aug 31, 2025)</title></circle><circle cx="552.0" cy="354.0" r="3" fill="#3ca951" class="data-point" tabindex="0" role="img" aria-label="TypeScript: 15.0K lines (Aug 31, 2025)"><title>TypeScript: 15.0K lines (Aug 31, 2025)</title></circle><circle cx="560.0" cy="354.0" r="3" fill="#3ca951" class="data-point" tabindex="0" role="img" aria-label="TypeScript: 15.1K lines (Aug 31, 2025)"><title>TypeScript: 15.1K lines (Aug 31, 2025)</title></circle><circle cx="568.0" cy="354.0" r="3" fill="#3ca951" class="data-point" tabindex="0" role="img" aria-label="TypeScript: 15.1K lines (Aug 31, 2025)"><title>TypeScript: 15.1K lines (Aug 31, 2025)</title></circle><circle cx="576.0" cy="352.0" r="3" fill="#3ca951" class="data-point" tabindex="0" role="img" aria-label="TypeScript: 15.5K lines (Sep 1, 2025)"><title>TypeScript: 15.5K lines (Sep 1, 2025)</title></circle><circle cx="584.0" cy="352.0" r="3" fill="#3ca951" class="data-point" tabindex="0" role="img" aria-label="TypeScript: 15.6K lines (Sep 1, 2025)"><title>TypeScript: 15.6K lines (Sep 1, 2025)</title></circle><circle cx="592.0" cy="351.0" r="3" fill="#3ca951" class="data-point" tabindex="0" role="img" aria-label="TypeScript: 15.8K lines (Sep 1, 2025)"><title>TypeScript: 15.8K lines (Sep 1, 2025)</title></circle><circle cx="600.0" cy="351.0" r="3" fill="#3ca951" class="data-point" tabindex="0" role="img" aria-label="TypeScript: 15.9K lines (Sep 1, 2025)"><title>TypeScript: 15.9K lines (Sep 1, 2025)</title></circle><circle cx="608.0" cy="359.0" r="3" fill="#3ca951" class="data-point" tabindex="0" role="img" aria-label="TypeScript: 14.0K lines (Sep 1, 2025)"><title>TypeScript: 14.0K lines (Sep 1, 2025)</title></circle><circle cx="616.0" cy="357.0" r="3" fill="#3ca951" class="data-point" tabindex="0" role="img" aria-label="TypeScript: 14.3K lines (Sep 1, 2025)"><title>TypeScript: 14.3K lines (Sep 1, 2025)</title></circle><circle cx="624.0" cy="356.0" r="3" fill="#3ca951" class="data-point" tabindex="0" role="img" aria-label="TypeScript: 14.7K lines (Sep 1, 2025)"><title>TypeScript: 14.7K lines (Sep 1, 2025)</title></circle><circle cx="632.0" cy="354.0" r="3" fill="#3ca951" class="data-point" tabindex="0" role="img" aria-label="TypeScript: 15.0K lines (Sep 1, 2025)"><title>TypeScript: 15.0K lines (Sep 1, 2025)</title></circle><circle cx="648.0" cy="354.0" r="3" fill="#3ca951" class="data-point" tabindex="0" role="img" aria-label="TypeScript: 15.1K lines (Sep 1, 2025)"><title>TypeScript: 15.1K lines (Sep 1, 2025)</title></circle><circle cx="656.0" cy="354.0" r="3" fill="#3ca951" class="data-point" tabindex="0" role="img" aria-label="TypeScript: 15.1K lines (Sep 1, 2025)"><title>TypeScript: 15.1K lines (Sep 1, 2025)</title></circle><circle cx="672.0" cy="353.0" r="3" fill="#3ca951" class="data-point" tabindex="0" role="img" aria-label="TypeScript: 15.4K lines (Sep 1, 2025)"><title>TypeScript: 15.4K lines (Sep 1, 2025)</title></circle><circle cx="680.0" cy="328.0" r="3" fill="#3ca951" class="data-point" tabindex="0" role="img" aria-label="TypeScript: 21.0K lines (Sep 2, 2025)"><title>TypeScript: 21.0K lines (Sep 2, 2025)</title></circle><circle cx="688.0" cy="352.0" r="3" fill="#3ca951" class="data-point" tabindex="0" role="img" aria-label="TypeScript: 15.5K lines (Sep 2, 2025)"><title>TypeScript: 15.5K lines (Sep 2, 2025)</title></circle><circle cx="704.0" cy="352.0" r="3" fill="#3ca951" class="data-point" tabindex="0" role="img" aria-label="TypeScript: 15.5K lines (Sep 2, 2025)"><title>TypeScript: 15.5K lines (Sep 2, 2025)</title></circle><circle cx="720.0" cy="347.0" r="3" fill="#3ca951" class="data-point" tabindex="0" role="img" aria-label="TypeScript: 16.6K lines (Sep 2, 2025)"><title>TypeScript: 16.6K lines (Sep 2, 2025)</title></circle><circle cx="728.0" cy="347.0" r="3" fill="#3ca951" class="data-point" tabindex="0" role="img" aria-label="TypeScript: 16.7K lines (Sep 2, 2025)"><title>TypeScript: 16.7K lines (Sep 2, 2025)</title></circle><circle cx="744.0" cy="340.0" r="3" fill="#3ca951" class="data-point" tabindex="0" role="img" aria-label="TypeScript: 18.2K lines (Sep 2, 2025)"><title>TypeScript: 18.2K lines (Sep 2, 2025)</title></circle><circle cx="760.0" cy="339.0" r="3" fill="#3ca951" class="data-point" tabindex="0" role="img" aria-label="TypeScript: 18.6K lines (Sep 2, 2025)"><title>TypeScript: 18.6K lines (Sep 2, 2025)</title></circle><path d="M 80.00 420.00 L 88.00 420.00 L 96.00 420.00 L 104.00 420.00 L 112.00 420.00 L 120.00 420.00 L 128.00 420.00 L 136.00 420.00 L 144.00 420.00 L 152.00 420.00 L 160.00 420.00 L 168.00 420.00 L 176.00 420.00 L 184.00 420.00 L 192.00 420.00 L 200.00 420.00 L 208.00 420.00 L 216.00 420.00 L 224.00 420.00 L 232.00 420.00 L 240.00 420.00 L 248.00 420.00 L 256.00 420.00 L 264.00 420.00 L 272.00 420.00 L 280.00 420.00 L 288.00 420.00 L 296.00 414.00 L 304.00 412.00 L 312.00 409.00 L 320.00 404.00 L 328.00 363.00 L 336.00 360.00 L 344.00 360.00 L 352.00 344.00 L 360.00 323.00 L 368.00 315.00 L 376.00 360.00 L 384.00 360.00 L 392.00 360.00 L 400.00 360.00 L 408.00 358.00 L 416.00 358.00 L 424.00 356.00 L 432.00 356.00 L 440.00 356.00 L 448.00 355.00 L 456.00 354.00 L 464.00 355.00 L 472.00 355.00 L 480.00 355.00 L 488.00 355.00 L 496.00 355.00 L 504.00 356.00 L 512.00 356.00 L 520.00 356.00 L 528.00 355.00 L 536.00 356.00 L 544.00 356.00 L 552.00 354.00 L 560.00 354.00 L 568.00 354.00 L 576.00 352.00 L 584.00 352.00 L 592.00 351.00 L 600.00 351.00 L 608.00 359.00 L 616.00 357.00 L 624.00 356.00 L 632.00 354.00 L 640.00 420.00 L 648.00 354.00 L 656.00 354.00 L 664.00 420.00 L 672.00 353.00 L 680.00 328.00 L 688.00 352.00 L 696.00 420.00 L 704.00 352.00 L 712.00 420.00 L 720.00 347.00 L 728.00 347.00 L 736.00 420.00 L 744.00 340.00 L 752.00 420.00 L 760.00 339.00" stroke="#3ca951" class="trend-line" tabindex="0" role="img" aria-label="TypeScript trend line"><title>TypeScript: 767.1K lines (optimized from 86 to 86 points)</title></path><circle cx="80.0" cy="420.0" r="3" fill="#3ca951" class="data-point" tabindex="0" role="img" aria-label="JSON: 23 lines (May 29, 2025)"><title>JSON: 23 lines (May 29, 2025)</title></circle><circle cx="256.0" cy="358.0" r="3" fill="#3ca951" class="data-point" tabindex="0" role="img" aria-label="JSON: 14.3K lines (Aug 8, 2025)"><title>JSON: 14.3K lines (Aug 8, 2025)</title></circle><circle cx="264.0" cy="356.0" r="3" fill="#3ca951" class="data-point" tabindex="0" role="img" aria-label="JSON: 14.6K lines (Aug 9, 2025)"><title>JSON: 14.6K lines (Aug 9, 2025)</title></circle><circle cx="328.0" cy="374.0" r="3" fill="#3ca951" class="data-point" tabindex="0" role="img" aria-label="JSON: 10.6K lines (Aug 30, 2025)"><title>JSON: 10.6K lines (Aug 30, 2025)</title></circle><circle cx="336.0" cy="374.0" r="3" fill="#3ca951" class="data-point" tabindex="0" role="img" aria-label="JSON: 10.6K lines (Aug 30, 2025)"><title>JSON: 10.6K lines (Aug 30, 2025)</title></circle><circle cx="344.0" cy="371.0" r="3" fill="#3ca951" class="data-point" tabindex="0" role="img" aria-label="JSON: 11.2K lines (Aug 30, 2025)"><title>JSON: 11.2K lines (Aug 30, 2025)</title></circle><circle cx="352.0" cy="372.0" r="3" fill="#3ca951" class="data-point" tabindex="0" role="img" aria-label="JSON: 11.0K lines (Aug 30, 2025)"><title>JSON: 11.0K lines (Aug 30, 2025)</title></circle><circle cx="360.0" cy="372.0" r="3" fill="#3ca951" class="data-point" tabindex="0" role="img" aria-label="JSON: 11.0K lines (Aug 30, 2025)"><title>JSON: 11.0K lines (Aug 30, 2025)</title></circle><circle cx="368.0" cy="371.0" r="3" fill="#3ca951" class="data-point" tabindex="0" role="img" aria-label="JSON: 11.3K lines (Aug 30, 2025)"><title>JSON: 11.3K lines (Aug 30, 2025)</title></circle><circle cx="376.0" cy="371.0" r="3" fill="#3ca951" class="data-point" tabindex="0" role="img" aria-label="JSON: 11.3K lines (Aug 30, 2025)"><title>JSON: 11.3K lines (Aug 30, 2025)</title></circle><circle cx="384.0" cy="371.0" r="3" fill="#3ca951" class="data-point" tabindex="0" role="img" aria-label="JSON: 11.3K lines (Aug 30, 2025)"><title>JSON: 11.3K lines (Aug 30, 2025)</title></circle><circle cx="392.0" cy="371.0" r="3" fill="#3ca951" class="data-point" tabindex="0" role="img" aria-label="JSON: 11.3K lines (Aug 30, 2025)"><title>JSON: 11.3K lines (Aug 30, 2025)</title></circle><circle cx="400.0" cy="371.0" r="3" fill="#3ca951" class="data-point" tabindex="0" role="img" aria-label="JSON: 11.3K lines (Aug 30, 2025)"><title>JSON: 11.3K lines (Aug 30, 2025)</title></circle><circle cx="408.0" cy="374.0" r="3" fill="#3ca951" class="data-point" tabindex="0" role="img" aria-label="JSON: 10.7K lines (Aug 30, 2025)"><title>JSON: 10.7K lines (Aug 30, 2025)</title></circle><circle cx="760.0" cy="418.0" r="3" fill="#3ca951" class="data-point" tabindex="0" role="img" aria-label="JSON: 504 lines (Sep 2, 2025)"><title>JSON: 504 lines (Sep 2, 2025)</title></circle><path d="M 80.00 420.00 L 88.00 420.00 L 96.00 420.00 L 104.00 420.00 L 112.00 420.00 L 120.00 420.00 L 128.00 420.00 L 136.00 420.00 L 144.00 420.00 L 152.00 420.00 L 160.00 420.00 L 168.00 420.00 L 176.00 420.00 L 184.00 420.00 L 192.00 420.00 L 200.00 420.00 L 208.00 420.00 L 216.00 420.00 L 224.00 420.00 L 232.00 420.00 L 240.00 420.00 L 248.00 420.00 L 256.00 358.00 L 264.00 356.00 L 272.00 420.00 L 280.00 420.00 L 288.00 420.00 L 296.00 414.00 L 304.00 414.00 L 312.00 414.00 L 320.00 414.00 L 328.00 374.00 L 336.00 374.00 L 344.00 371.00 L 352.00 372.00 L 360.00 372.00 L 368.00 371.00 L 376.00 371.00 L 384.00 371.00 L 392.00 371.00 L 400.00 371.00 L 408.00 374.00 L 416.00 413.00 L 424.00 414.00 L 432.00 413.00 L 440.00 413.00 L 448.00 413.00 L 456.00 409.00 L 464.00 409.00 L 472.00 408.00 L 480.00 408.00 L 488.00 408.00 L 496.00 419.00 L 504.00 419.00 L 512.00 419.00 L 520.00 419.00 L 528.00 419.00 L 536.00 419.00 L 544.00 419.00 L 552.00 419.00 L 560.00 419.00 L 568.00 419.00 L 576.00 419.00 L 584.00 419.00 L 592.00 419.00 L 600.00 419.00 L 608.00 419.00 L 616.00 419.00 L 624.00 419.00 L 632.00 419.00 L 640.00 402.00 L 648.00 419.00 L 656.00 419.00 L 664.00 402.00 L 672.00 419.00 L 680.00 418.00 L 688.00 418.00 L 696.00 402.00 L 704.00 418.00 L 712.00 402.00 L 720.00 418.00 L 728.00 418.00 L 736.00 402.00 L 744.00 418.00 L 752.00 402.00 L 760.00 418.00" stroke="#3ca951" class="trend-line" tabindex="0" role="img" aria-label="JSON trend line"><title>JSON: 218.7K lines (optimized from 86 to 86 points)</title></path><circle cx="80.0" cy="420.0" r="3" fill="#3ca951" class="data-point" tabindex="0" role="img" aria-label="YAML: 0 lines (May 29, 2025)"><title>YAML: 0 lines (May 29, 2025)</title></circle><circle cx="760.0" cy="419.0" r="3" fill="#3ca951" class="data-point" tabindex="0" role="img" aria-label="YAML: 352 lines (Sep 2, 2025)"><title>YAML: 352 lines (Sep 2, 2025)</title></circle><path d="M 80.00 420.00 L 88.00 412.00 L 96.00 412.00 L 104.00 410.00 L 112.00 410.00 L 120.00 410.00 L 128.00 409.00 L 136.00 409.00 L 144.00 408.00 L 152.00 402.00 L 160.00 408.00 L 168.00 407.00 L 176.00 407.00 L 184.00 407.00 L 192.00 402.00 L 200.00 407.00 L 208.00 407.00 L 216.00 407.00 L 224.00 407.00 L 232.00 402.00 L 240.00 408.00 L 248.00 408.00 L 256.00 408.00 L 264.00 408.00 L 272.00 408.00 L 280.00 408.00 L 288.00 410.00 L 296.00 420.00 L 304.00 420.00 L 312.00 420.00 L 320.00 420.00 L 328.00 420.00 L 336.00 420.00 L 344.00 420.00 L 352.00 420.00 L 360.00 420.00 L 368.00 420.00 L 376.00 420.00 L 384.00 420.00 L 392.00 420.00 L 400.00 420.00 L 408.00 420.00 L 416.00 420.00 L 424.00 420.00 L 432.00 420.00 L 440.00 420.00 L 448.00 420.00 L 456.00 420.00 L 464.00 420.00 L 472.00 420.00 L 480.00 420.00 L 488.00 420.00 L 496.00 420.00 L 504.00 420.00 L 512.00 420.00 L 520.00 420.00 L 528.00 420.00 L 536.00 420.00 L 544.00 420.00 L 552.00 420.00 L 560.00 420.00 L 568.00 420.00 L 576.00 420.00 L 584.00 420.00 L 592.00 420.00 L 600.00 420.00 L 608.00 420.00 L 616.00 419.00 L 624.00 418.00 L 632.00 418.00 L 640.00 392.00 L 648.00 418.00 L 656.00 418.00 L 664.00 392.00 L 672.00 418.00 L 680.00 418.00 L 688.00 418.00 L 696.00 392.00 L 704.00 418.00 L 712.00 392.00 L 720.00 419.00 L 728.00 419.00 L 736.00 392.00 L 744.00 419.00 L 752.00 392.00 L 760.00 419.00" stroke="#3ca951" class="trend-line" tabindex="0" role="img" aria-label="YAML trend line"><title>YAML: 124.2K lines (optimized from 86 to 86 points)</title></path><circle cx="80.0" cy="420.0" r="3" fill="#efb118" class="data-point" tabindex="0" role="img" aria-label="HTML: 0 lines (May 29, 2025)"><title>HTML: 0 lines (May 29, 2025)</title></circle><circle cx="760.0" cy="420.0" r="3" fill="#efb118" class="data-point" tabindex="0" role="img" aria-label="HTML: 0 lines (Sep 2, 2025)"><title>HTML: 0 lines (Sep 2, 2025)</title></circle><path d="M 80.00 420.00 L 88.00 420.00 L 96.00 410.00 L 104.00 410.00 L 112.00 404.00 L 120.00 404.00 L 128.00 404.00 L 136.00 404.00 L 144.00 404.00 L 152.00 404.00 L 160.00 404.00 L 168.00 404.00 L 176.00 404.00 L 184.00 404.00 L 192.00 404.00 L 200.00 404.00 L 208.00 404.00 L 216.00 404.00 L 224.00 404.00 L 232.00 404.00 L 240.00 404.00 L 248.00 404.00 L 256.00 394.00 L 264.00 394.00 L 272.00 405.00 L 280.00 405.00 L 288.00 405.00 L 296.00 420.00 L 304.00 420.00 L 312.00 420.00 L 320.00 420.00 L 328.00 420.00 L 336.00 420.00 L 344.00 420.00 L 352.00 420.00 L 360.00 420.00 L 368.00 420.00 L 376.00 420.00 L 384.00 420.00 L 392.00 420.00 L 400.00 420.00 L 408.00 420.00 L 416.00 420.00 L 424.00 420.00 L 432.00 420.00 L 440.00 420.00 L 448.00 420.00 L 456.00 420.00 L 464.00 420.00 L 472.00 420.00 L 480.00 420.00 L 488.00 420.00 L 496.00 420.00 L 504.00 420.00 L 512.00 420.00 L 520.00 420.00 L 528.00 420.00 L 536.00 420.00 L 544.00 420.00 L 552.00 420.00 L 560.00 420.00 L 568.00 420.00 L 576.00 420.00 L 584.00 420.00 L 592.00 420.00 L 600.00 420.00 L 608.00 420.00 L 616.00 420.00 L 624.00 420.00 L 632.00 420.00 L 640.00 420.00 L 648.00 420.00 L 656.00 420.00 L 664.00 420.00 L 672.00 420.00 L 680.00 420.00 L 688.00 420.00 L 696.00 420.00 L 704.00 420.00 L 712.00 420.00 L 720.00 420.00 L 728.00 420.00 L 736.00 420.00 L 744.00 420.00 L 752.00 420.00 L 760.00 420.00" stroke="#efb118" class="trend-line" tabindex="0" role="img" aria-label="HTML trend line"><title>HTML: 94.1K lines (optimized from 86 to 86 points)</title></path><text x="65" y="420" class="axis-label" text-anchor="end" dominant-baseline="middle">0</text><text x="65" y="338" class="axis-label" text-anchor="end" dominant-baseline="middle">18.8K</text><text x="65" y="255" class="axis-label" text-anchor="end" dominant-baseline="middle">37.5K</text><text x="65" y="173" class="axis-label" text-anchor="end" dominant-baseline="middle">56.2K</text><text x="65" y="90" class="axis-label" text-anchor="end" dominant-baseline="middle">75.0K</text><text x="80" y="440" class="axis-label" text-anchor="middle">May 25</text><text x="248" y="440" class="axis-label" text-anchor="middle">Aug 25</text><text x="416" y="440" class="axis-label" text-anchor="middle">Aug 30</text><text x="584" y="440" class="axis-label" text-anchor="middle">Sep 25</text><text x="760" y="440" class="axis-label" text-anchor="middle">Sep 25</text><text x="20" y="255" class="axis-title" text-anchor="middle" transform="rotate(-90 20 255)">Lines</text><rect x="758" y="88" width="180" height="148" class="legend-background"/><text x="770" y="116" class="legend-title">Languages</text><g class="legend-item" tabindex="0" role="button" aria-label="Markdown: 1.4M lines"><circle cx="775" cy="132" r="5" fill="#4269d0" class="legend-color-indicator"/><text x="788" y="132" class="legend-text" dominant-baseline="middle">Markdown</text><text x="940" y="132" class="legend-count" dominant-baseline="middle" text-anchor="end">1.4M</text><title>Markdown: 1.4M lines</title></g><g class="legend-item" tabindex="0" role="button" aria-label="Go: 1.0M lines"><circle cx="775" cy="150" r="5" fill="#97bbf5" class="legend-color-indicator"/><text x="788" y="150" class="legend-text" dominant-baseline="middle">Go</text><text x="940" y="150" class="legend-count" dominant-baseline="middle" text-anchor="end">1.0M</text><title>Go: 1.0M lines</title></g><g class="legend-item" tabindex="0" role="button" aria-label="TypeScript: 767.1K lines"><circle cx="775" cy="168" r="5" fill="#3ca951" class="legend-color-indicator"/><text x="788" y="168" class="legend-text" dominant-baseline="middle">TypeScript</text><text x="940" y="168" class="legend-count" dominant-baseline="middle" text-anchor="end">767.1K</text><title>TypeScript: 767.1K lines</title></g><g class="legend-item" tabindex="0" role="button" aria-label="JSON: 218.7K lines"><circle cx="775" cy="186" r="5" fill="#3ca951" class="legend-color-indicator"/><text x="788" y="186" class="legend-text" dominant-baseline="middle">JSON</text><text x="940" y="186" class="legend-count" dominant-baseline="middle" text-anchor="end">218.7K</text><title>JSON: 218.7K lines</title></g><g class="legend-item" tabindex="0" role="button" aria-label="YAML: 124.2K lines"><circle cx="775" cy="204" r="5" fill="#3ca951" class="legend-color-indicator"/><text x="788" y="204" class="legend-text" dominant-baseline="middle">YAML</text><text x="940" y="204" class="legend-count" dominant-baseline="middle" text-anchor="end">124.2K</text><title>YAML: 124.2K lines</title></g><g class="legend-item" tabindex="0" role="button" aria-label="HTML: 94.1K lines"><circle cx="775" cy="222" r="5" fill="#efb118" class="legend-color-indicator"/><text x="788" y="222" class="legend-text" dominant-baseline="middle">HTML</text><text x="940" y="222" class="legend-count" dominant-baseline="middle" text-anchor="end">94.1K</text><title>HTML: 94.1K lines</title></g><text x="60" y="505" class="meta-text">May 25 to Sep 25 • 86 commits • 45.7K total lines</text></svg>